<svg width="45" height="53" viewBox="0 0 45 53" fill="none" xmlns="http://www.w3.org/2000/svg">
<path d="M8.56213 39.7348C8.56213 41.083 9.66262 42.1835 11.0166 42.1835H13.8226V49.1206C13.8226 50.8779 15.2342 52.3126 16.9685 52.3126C18.7085 52.3126 20.1144 50.8837 20.1144 49.1206V42.1777H25.0118V49.1148C25.0118 50.8722 26.4235 52.3068 28.1577 52.3068C29.8978 52.3068 31.3036 50.8779 31.3036 49.1148V42.1777H34.1096C35.4636 42.1777 36.5641 41.0772 36.5641 39.729V16.9587H8.56213V39.7348ZM29.1372 5.15869L31.7242 1.41358C31.8741 1.19463 31.8395 0.900784 31.6378 0.756741C31.4362 0.61846 31.1481 0.687601 30.9983 0.906546L28.3133 4.80147C26.5445 4.1043 24.5739 3.71826 22.5055 3.71826C20.437 3.71826 18.4665 4.1043 16.6977 4.80147L14.0127 0.912308C13.8629 0.693362 13.5748 0.61846 13.3732 0.762503C13.1715 0.900784 13.1369 1.18887 13.2867 1.41934L15.8738 5.16446C11.7599 7.07735 8.87903 10.7015 8.51028 14.9363H36.5122C36.132 10.6957 33.2453 7.07159 29.1372 5.15869ZM16.594 11.0645C16.2874 11.0645 15.9878 10.9736 15.7329 10.8032C15.478 10.6329 15.2794 10.3909 15.162 10.1077C15.0447 9.82447 15.014 9.51283 15.0738 9.21218C15.1337 8.91153 15.2813 8.63536 15.498 8.41861C15.7148 8.20185 15.9909 8.05424 16.2916 7.99443C16.5923 7.93463 16.9039 7.96532 17.1871 8.08263C17.4703 8.19994 17.7124 8.39859 17.8827 8.65347C18.053 8.90835 18.1439 9.20801 18.1439 9.51455C18.1428 9.92529 17.9792 10.3189 17.6887 10.6093C17.3983 10.8998 17.0047 11.0634 16.594 11.0645ZM28.6014 11.0645C28.2949 11.0645 27.9952 10.9736 27.7403 10.8032C27.4854 10.6329 27.2868 10.3909 27.1695 10.1077C27.0522 9.82447 27.0215 9.51283 27.0813 9.21218C27.1411 8.91153 27.2887 8.63536 27.5054 8.41861C27.7222 8.20185 27.9984 8.05424 28.299 7.99443C28.5997 7.93463 28.9113 7.96532 29.1945 8.08263C29.4777 8.19994 29.7198 8.39859 29.8901 8.65347C30.0604 8.90835 30.1513 9.20801 30.1513 9.51455C30.1502 9.92529 29.9866 10.3189 29.6962 10.6093C29.4057 10.8998 29.0121 11.0634 28.6014 11.0645ZM41.4731 16.8665C39.733 16.8665 38.3272 18.2954 38.3272 20.0585V32.5269C38.3272 34.2842 39.7388 35.7188 41.4731 35.7188C43.2131 35.7188 44.619 34.2899 44.619 32.5269V20.0527C44.6247 18.2897 43.2189 16.8665 41.4731 16.8665ZM3.52639 16.8665C1.78635 16.8665 0.380493 18.2954 0.380493 20.0585V32.5269C0.380493 34.2842 1.79211 35.7188 3.52639 35.7188C5.26643 35.7188 6.67229 34.2899 6.67229 32.5269V20.0527C6.67229 18.2897 5.26067 16.8665 3.52639 16.8665Z" fill="white"/>
</svg>
