<svg width="41" height="49" viewBox="0 0 41 49" fill="none" xmlns="http://www.w3.org/2000/svg">
<path d="M40.1602 38.0276C39.4679 39.6413 38.6126 41.1801 37.6077 42.6201C36.2652 44.5376 35.1627 45.8626 34.3177 46.6001C33.0052 47.8051 31.5952 48.4251 30.0877 48.4601C29.0077 48.4601 27.7027 48.1526 26.1827 47.5276C24.6577 46.9051 23.2577 46.6001 21.9752 46.6001C20.6327 46.6001 19.1927 46.9051 17.6502 47.5276C16.1102 48.1526 14.8652 48.4801 13.9127 48.5101C12.4702 48.5726 11.0277 47.9376 9.59017 46.6001C8.67267 45.8001 7.52517 44.4251 6.14767 42.4801C4.67267 40.4076 3.46017 37.9951 2.51017 35.2526C1.49267 32.2851 0.982666 29.4151 0.982666 26.6351C0.982666 23.4526 1.67017 20.7051 3.04767 18.4051C4.08954 16.5987 5.57904 15.0911 7.37267 14.0276C9.14133 12.9667 11.1604 12.3955 13.2227 12.3726C14.3727 12.3726 15.8802 12.7276 17.7477 13.4276C19.6152 14.1276 20.8152 14.4826 21.3377 14.4826C21.7327 14.4826 23.0602 14.0651 25.3202 13.2376C27.4527 12.4701 29.2527 12.1526 30.7277 12.2776C34.7277 12.6001 37.7302 14.1751 39.7277 17.0151C36.1527 19.1826 34.3852 22.2151 34.4202 26.1076C34.4502 29.1401 35.5527 31.6626 37.7127 33.6651C38.6676 34.5789 39.7818 35.3101 41.0002 35.8226C40.7352 36.5901 40.4552 37.3226 40.1602 38.0276ZM30.9927 1.95006C30.9927 4.32506 30.1227 6.54506 28.3952 8.59756C26.3052 11.0376 23.7802 12.4501 21.0427 12.2276C21.0069 11.9289 20.9893 11.6283 20.9902 11.3276C20.9902 9.04506 21.9802 6.60506 23.7477 4.60756C24.6277 3.59756 25.7477 2.75506 27.1052 2.08506C28.4602 1.42506 29.7402 1.06006 30.9452 0.997559C30.9777 1.31756 30.9927 1.63506 30.9927 1.95006Z" fill="white"/>
</svg>
