<?xml version="1.0" encoding="UTF-8"?>
<svg width="34px" height="34px" viewBox="0 0 34 34" version="1.1" xmlns="http://www.w3.org/2000/svg" xmlns:xlink="http://www.w3.org/1999/xlink">
    <title>appointment</title>
    <g id="Page-1" stroke="none" stroke-width="1" fill="none" fill-rule="evenodd">
        <g id="appointment" fill="#000000" fill-rule="nonzero">
            <path d="M30.5547,2.98718 L27.4824,2.98718 L27.4824,2.08484 C27.4824,1.01866 26.615,0.151245 25.5488,0.151245 C24.4826,0.151245 23.6152,1.01866 23.6152,2.08484 L23.6152,2.98718 L12.7871,2.98718 L12.7871,2.08484 C12.7871,1.01866 11.9197,0.151245 10.8535,0.151245 C9.78731,0.151245 8.9199,1.01866 8.9199,2.08484 L8.9199,3.01103 C8.86512,2.99588 8.80769,2.98718 8.74807,2.98718 L6.18,2.98718 C4.40303,2.98718 2.95734,4.43287 2.95734,6.20984 L2.95734,17.1883 C2.95734,17.5443 3.24596,17.8329 3.60187,17.8329 C3.95778,17.8329 4.2464,17.5443 4.2464,17.1883 L4.2464,9.62585 L27.4824,9.62585 C27.8383,9.62585 28.1269,9.3373 28.1269,8.98132 C28.1269,8.62535 27.8383,8.33679 27.4824,8.33679 L4.2464,8.33679 L4.2464,6.20984 C4.2464,5.14366 5.11381,4.27625 6.18,4.27625 L8.74807,4.27625 C8.80769,4.27625 8.86512,4.26748 8.9199,4.2524 L8.9199,5.08191 C8.9199,6.14809 9.78731,7.0155 10.8535,7.0155 C11.9197,7.0155 12.7871,6.14809 12.7871,5.08191 L12.7871,4.27625 L23.6152,4.27625 L23.6152,5.08191 C23.6152,6.14809 24.4826,7.0155 25.5488,7.0155 C26.615,7.0155 27.4824,6.14809 27.4824,5.08191 L27.4824,4.27625 L30.5547,4.27625 C31.6209,4.27625 32.4883,5.14366 32.4883,6.20984 L32.4883,30.7016 C32.4883,31.3415 31.9677,31.8622 31.3277,31.8622 C30.6878,31.8622 30.1672,31.3415 30.1672,30.7016 L30.1672,29.0343 C30.1672,28.6783 29.8786,28.3898 29.5227,28.3898 L22.0254,28.3898 C21.6695,28.3898 21.3809,28.6783 21.3809,29.0343 C21.3809,29.3903 21.6695,29.6788 22.0254,29.6788 L28.8781,29.6788 L28.8781,30.7016 C28.8781,31.1213 28.9844,31.5165 29.1711,31.8622 L3.22656,31.8622 C2.58687,31.8622 2.06641,31.3417 2.06641,30.702 L2.06641,29.6788 L16.4926,29.6788 C16.8485,29.6788 17.1372,29.3903 17.1372,29.0343 C17.1372,28.6783 16.8485,28.3898 16.4926,28.3898 L10.0527,28.3898 C11.179,27.4198 11.8942,25.9851 11.8942,24.3856 C11.8942,21.4714 9.52325,19.1005 6.609,19.1005 C3.69475,19.1005 1.32384,21.4714 1.32384,24.3856 C1.32384,25.9851 2.03901,27.4198 3.16527,28.3898 L1.42188,28.3898 C1.06596,28.3898 0.777344,28.6783 0.777344,29.0343 L0.777344,30.702 C0.777344,32.0525 1.87608,33.1512 3.22656,33.1512 L31.3277,33.1512 C32.6784,33.1512 33.7773,32.0524 33.7773,30.7016 L33.7773,6.20984 C33.7773,4.43287 32.3317,2.98718 30.5547,2.98718 Z M11.498,5.08191 C11.498,5.4373 11.2089,5.72644 10.8535,5.72644 C10.4981,5.72644 10.209,5.4373 10.209,5.08191 L10.209,2.08484 C10.209,1.72944 10.4981,1.44031 10.8535,1.44031 C11.2089,1.44031 11.498,1.72944 11.498,2.08484 L11.498,5.08191 Z M26.1933,5.08191 C26.1933,5.4373 25.9042,5.72644 25.5488,5.72644 C25.1934,5.72644 24.9043,5.4373 24.9043,5.08191 L24.9043,2.08484 C24.9043,1.72944 25.1934,1.44031 25.5488,1.44031 C25.9042,1.44031 26.1933,1.72944 26.1933,2.08484 L26.1933,5.08191 Z M2.6129,24.3856 C2.6129,22.1822 4.40554,20.3895 6.609,20.3895 C8.81246,20.3895 10.6051,22.1822 10.6051,24.3856 C10.6051,26.5891 8.81246,28.3817 6.609,28.3817 C4.40554,28.3817 2.6129,26.5891 2.6129,24.3856 Z" id="Shape"></path>
            <path d="M30.9627,8.52564 C30.8429,8.40576 30.6766,8.33679 30.5071,8.33679 C30.3375,8.33679 30.1713,8.40576 30.0514,8.52564 C29.9315,8.64552 29.8625,8.81181 29.8625,8.98132 C29.8625,9.15083 29.9315,9.31712 30.0514,9.43701 C30.1713,9.55689 30.3375,9.62585 30.5071,9.62585 C30.6766,9.62585 30.8429,9.55689 30.9627,9.43701 C31.0826,9.31712 31.1516,9.15083 31.1516,8.98132 C31.1516,8.81181 31.0826,8.64552 30.9627,8.52564 Z" id="Path"></path>
            <path d="M20.0262,28.5782 C19.9064,28.4584 19.7401,28.39 19.5706,28.39 C19.401,28.39 19.2348,28.4584 19.1149,28.5782 C18.995,28.6988 18.926,28.8644 18.926,29.0339 C18.926,29.2041 18.9949,29.3697 19.1149,29.4902 C19.2348,29.6101 19.401,29.6785 19.5706,29.6785 C19.7401,29.6785 19.9064,29.6101 20.0262,29.4902 C20.1461,29.3697 20.2151,29.2034 20.2151,29.0339 C20.2151,28.8644 20.1461,28.6988 20.0262,28.5782 Z" id="Path"></path>
            <path d="M15.3586,19.745 C14.0082,19.745 12.9094,20.8437 12.9094,22.1942 C12.9094,23.5447 14.0082,24.6434 15.3586,24.6434 C16.7091,24.6434 17.8079,23.5447 17.8079,22.1942 C17.8079,20.8437 16.7091,19.745 15.3586,19.745 Z M15.3586,23.3544 C14.7189,23.3544 14.1985,22.8339 14.1985,22.1942 C14.1985,21.5545 14.7189,21.0341 15.3586,21.0341 C15.9983,21.0341 16.5188,21.5545 16.5188,22.1942 C16.5188,22.8339 15.9983,23.3544 15.3586,23.3544 Z" id="Shape"></path>
            <path d="M21.3752,19.745 C20.0248,19.745 18.926,20.8437 18.926,22.1942 C18.926,23.5447 20.0248,24.6434 21.3752,24.6434 C22.7257,24.6434 23.8245,23.5447 23.8245,22.1942 C23.8245,20.8437 22.7257,19.745 21.3752,19.745 Z M21.3752,23.3544 C20.7355,23.3544 20.2151,22.8339 20.2151,22.1942 C20.2151,21.5545 20.7355,21.0341 21.3752,21.0341 C22.0149,21.0341 22.5354,21.5545 22.5354,22.1942 C22.5354,22.8339 22.0149,23.3544 21.3752,23.3544 Z" id="Shape"></path>
            <path d="M27.3906,19.745 C26.0401,19.745 24.9414,20.8437 24.9414,22.1942 C24.9414,23.5447 26.0401,24.6434 27.3906,24.6434 C28.7411,24.6434 29.8398,23.5447 29.8398,22.1942 C29.8398,20.8437 28.7411,19.745 27.3906,19.745 Z M27.3906,23.3544 C26.7509,23.3544 26.2305,22.8339 26.2305,22.1942 C26.2305,21.5545 26.7509,21.0341 27.3906,21.0341 C28.0303,21.0341 28.5508,21.5545 28.5508,22.1942 C28.5508,22.8339 28.0303,23.3544 27.3906,23.3544 Z" id="Shape"></path>
            <path d="M9.34375,13.0419 C7.99326,13.0419 6.89453,14.1406 6.89453,15.4911 C6.89453,16.8416 7.99326,17.9403 9.34375,17.9403 C10.6942,17.9403 11.793,16.8416 11.793,15.4911 C11.793,14.1406 10.6942,13.0419 9.34375,13.0419 Z M9.34375,16.6512 C8.70405,16.6512 8.18359,16.1308 8.18359,15.4911 C8.18359,14.8514 8.70405,14.3309 9.34375,14.3309 C9.98345,14.3309 10.5039,14.8514 10.5039,15.4911 C10.5039,16.1308 9.98345,16.6512 9.34375,16.6512 Z" id="Shape"></path>
            <path d="M21.3752,13.0419 C20.0248,13.0419 18.926,14.1406 18.926,15.4911 C18.926,16.8416 20.0248,17.9403 21.3752,17.9403 C22.7257,17.9403 23.8245,16.8416 23.8245,15.4911 C23.8245,14.1406 22.7257,13.0419 21.3752,13.0419 Z M21.3752,16.6512 C20.7355,16.6512 20.2151,16.1308 20.2151,15.4911 C20.2151,14.8514 20.7355,14.3309 21.3752,14.3309 C22.0149,14.3309 22.5354,14.8514 22.5354,15.4911 C22.5354,16.1308 22.0149,16.6512 21.3752,16.6512 Z" id="Shape"></path>
            <path d="M27.3906,13.0419 C26.0401,13.0419 24.9414,14.1406 24.9414,15.4911 C24.9414,16.8416 26.0401,17.9403 27.3906,17.9403 C28.7411,17.9403 29.8398,16.8416 29.8398,15.4911 C29.8398,14.1406 28.7411,13.0419 27.3906,13.0419 Z M27.3906,16.6512 C26.7509,16.6512 26.2305,16.1308 26.2305,15.4911 C26.2305,14.8514 26.7509,14.3309 27.3906,14.3309 C28.0303,14.3309 28.5508,14.8514 28.5508,15.4911 C28.5508,16.1308 28.0303,16.6512 27.3906,16.6512 Z" id="Shape"></path>
            <path d="M15.3586,13.0419 C14.0082,13.0419 12.9094,14.1406 12.9094,15.4911 C12.9094,16.8416 14.0082,17.9403 15.3586,17.9403 C16.7091,17.9403 17.8079,16.8416 17.8079,15.4911 C17.8079,14.1406 16.7091,13.0419 15.3586,13.0419 Z M15.3586,16.6512 C14.7189,16.6512 14.1985,16.1308 14.1985,15.4911 C14.1985,14.8514 14.7189,14.3309 15.3586,14.3309 C15.9983,14.3309 16.5188,14.8514 16.5188,15.4911 C16.5188,16.1308 15.9983,16.6512 15.3586,16.6512 Z" id="Shape"></path>
            <path d="M8.90507,22.8149 C8.65331,22.5632 8.24533,22.5632 7.99351,22.8149 L5.89453,24.9139 L5.17723,24.1966 C4.92548,23.9449 4.51749,23.9449 4.26567,24.1966 C4.01398,24.4483 4.01398,24.8564 4.26567,25.1082 L5.43878,26.2811 C5.5597,26.402 5.7236,26.4699 5.89453,26.4699 C6.06546,26.4699 6.22936,26.402 6.35028,26.2811 L8.90507,23.7264 C9.15676,23.4747 9.15676,23.0665 8.90507,22.8149 Z" id="Path"></path>
        </g>
    </g>
</svg>