<svg width="15" height="10" viewBox="0 0 15 10" fill="none" xmlns="http://www.w3.org/2000/svg">
<path fill-rule="evenodd" clip-rule="evenodd" d="M13.2915 0.494873H12.484C12.0381 0.494873 11.6766 0.856388 11.6766 1.30234V8.30039C11.6766 8.74634 12.0381 9.10785 12.484 9.10785H13.2915C13.7375 9.10785 14.099 8.74634 14.099 8.30039V1.30234C14.099 0.856388 13.7375 0.494873 13.2915 0.494873ZM8.71633 2.37873H9.5238C9.96975 2.37873 10.3313 2.74025 10.3313 3.1862V8.30016C10.3313 8.74611 9.96975 9.10763 9.5238 9.10763H8.71633C8.27038 9.10763 7.90886 8.74611 7.90886 8.30016V3.1862C7.90886 2.74025 8.27038 2.37873 8.71633 2.37873ZM5.75424 4.26305H4.94677C4.50082 4.26305 4.1393 4.62457 4.1393 5.07052V8.30039C4.1393 8.74634 4.50082 9.10785 4.94677 9.10785H5.75424C6.20019 9.10785 6.5617 8.74634 6.5617 8.30039V5.07052C6.5617 4.62457 6.20019 4.26305 5.75424 4.26305ZM1.98652 5.87786H1.17905C0.733097 5.87786 0.371582 6.23937 0.371582 6.68532V8.30026C0.371582 8.74621 0.733097 9.10772 1.17905 9.10772H1.98652C2.43247 9.10772 2.79398 8.74621 2.79398 8.30026V6.68532C2.79398 6.23937 2.43247 5.87786 1.98652 5.87786Z" fill="white"/>
</svg>
