<?xml version="1.0" encoding="UTF-8"?>
<svg width="34px" height="34px" viewBox="0 0 34 34" version="1.1" xmlns="http://www.w3.org/2000/svg" xmlns:xlink="http://www.w3.org/1999/xlink">
    <title>crm</title>
    <g id="Page-1" stroke="none" stroke-width="1" fill="none" fill-rule="evenodd">
        <g id="crm" fill="#000000" fill-rule="nonzero">
            <path d="M23.5957,18.9716 L21.0176,18.9716 C20.6616,18.9716 20.373,19.2601 20.373,19.6161 C20.373,19.9721 20.6616,20.2606 21.0176,20.2606 L23.5957,20.2606 C23.9517,20.2606 24.2402,19.9721 24.2402,19.6161 C24.2402,19.2601 23.9517,18.9716 23.5957,18.9716 Z" id="Path"></path>
            <path d="M14.5723,20.2606 L18.4395,20.2606 C18.7955,20.2606 19.084,19.9721 19.084,19.6161 C19.084,19.2601 18.7955,18.9716 18.4395,18.9716 L14.5723,18.9716 C14.2163,18.9716 13.9277,19.2601 13.9277,19.6161 C13.9277,19.9721 14.2163,20.2606 14.5723,20.2606 Z" id="Path"></path>
            <path d="M30.041,18.9716 L26.1738,18.9716 C25.8178,18.9716 25.5293,19.2601 25.5293,19.6161 C25.5293,19.9721 25.8178,20.2606 26.1738,20.2606 L30.041,20.2606 C30.397,20.2606 30.6855,19.9721 30.6855,19.6161 C30.6855,19.2601 30.397,18.9716 30.041,18.9716 Z" id="Path"></path>
            <path d="M25.5293,17.038 C25.5293,17.394 25.8178,17.6825 26.1738,17.6825 L30.041,17.6825 C30.397,17.6825 30.6855,17.394 30.6855,17.038 C30.6855,16.682 30.397,16.3934 30.041,16.3934 L26.1738,16.3934 C25.8178,16.3934 25.5293,16.682 25.5293,17.038 Z" id="Path"></path>
            <path d="M21.0176,16.3934 C20.6616,16.3934 20.373,16.682 20.373,17.038 C20.373,17.394 20.6616,17.6825 21.0176,17.6825 L23.5957,17.6825 C23.9517,17.6825 24.2402,17.394 24.2402,17.038 C24.2402,16.682 23.9517,16.3934 23.5957,16.3934 L21.0176,16.3934 Z" id="Path"></path>
            <path d="M14.5723,17.6825 L18.4395,17.6825 C18.7955,17.6825 19.084,17.394 19.084,17.038 C19.084,16.682 18.7955,16.3934 18.4395,16.3934 L14.5723,16.3934 C14.2163,16.3934 13.9277,16.682 13.9277,17.038 C13.9277,17.394 14.2163,17.6825 14.5723,17.6825 Z" id="Path"></path>
            <path d="M4.00195,8.27234 C3.64671,8.27234 3.35742,8.56162 3.35742,8.91687 C3.35742,9.27212 3.64671,9.5614 4.00195,9.5614 C4.3572,9.5614 4.64648,9.27212 4.64648,8.91687 C4.64648,8.56162 4.3572,8.27234 4.00195,8.27234 Z" id="Path"></path>
            <path d="M9.1582,8.27234 L6.58008,8.27234 C6.22483,8.27234 5.93555,8.56162 5.93555,8.91687 C5.93555,9.27212 6.22483,9.5614 6.58008,9.5614 L9.1582,9.5614 C9.51345,9.5614 9.80273,9.27212 9.80273,8.91687 C9.80273,8.56162 9.51345,8.27234 9.1582,8.27234 Z" id="Path"></path>
            <path d="M9.1582,10.8505 L6.58008,10.8505 C6.22483,10.8505 5.93555,11.1397 5.93555,11.495 C5.93555,11.8502 6.22483,12.1395 6.58008,12.1395 L9.1582,12.1395 C9.51345,12.1395 9.80273,11.8502 9.80273,11.495 C9.80273,11.1397 9.51345,10.8505 9.1582,10.8505 Z" id="Path"></path>
            <path d="M4.00195,10.8505 C3.64671,10.8505 3.35742,11.1397 3.35742,11.495 C3.35742,11.8502 3.64671,12.1395 4.00195,12.1395 C4.3572,12.1395 4.64648,11.8502 4.64648,11.495 C4.64648,11.1397 4.3572,10.8505 4.00195,10.8505 Z" id="Path"></path>
            <path d="M9.1582,13.4286 L6.58008,13.4286 C6.22483,13.4286 5.93555,13.7179 5.93555,14.0731 C5.93555,14.4284 6.22483,14.7177 6.58008,14.7177 L9.1582,14.7177 C9.51345,14.7177 9.80273,14.4284 9.80273,14.0731 C9.80273,13.7179 9.51345,13.4286 9.1582,13.4286 Z" id="Path"></path>
            <path d="M4.00195,13.4286 C3.64671,13.4286 3.35742,13.7179 3.35742,14.0731 C3.35742,14.4284 3.64671,14.7177 4.00195,14.7177 C4.3572,14.7177 4.64648,14.4284 4.64648,14.0731 C4.64648,13.7179 4.3572,13.4286 4.00195,13.4286 Z" id="Path"></path>
            <path d="M4.00195,16.0067 C3.64671,16.0067 3.35742,16.296 3.35742,16.6512 C3.35742,17.0065 3.64671,17.2958 4.00195,17.2958 C4.3572,17.2958 4.64648,17.0065 4.64648,16.6512 C4.64648,16.296 4.3572,16.0067 4.00195,16.0067 Z" id="Path"></path>
            <path d="M9.1582,16.0067 L6.58008,16.0067 C6.22483,16.0067 5.93555,16.296 5.93555,16.6512 C5.93555,17.0065 6.22483,17.2958 6.58008,17.2958 L9.1582,17.2958 C9.51345,17.2958 9.80273,17.0065 9.80273,16.6512 C9.80273,16.296 9.51345,16.0067 9.1582,16.0067 Z" id="Path"></path>
            <path d="M4.00195,18.5848 C3.64671,18.5848 3.35742,18.8741 3.35742,19.2294 C3.35742,19.5846 3.64671,19.8739 4.00195,19.8739 C4.3572,19.8739 4.64648,19.5846 4.64648,19.2294 C4.64648,18.8741 4.3572,18.5848 4.00195,18.5848 Z" id="Path"></path>
            <path d="M9.1582,18.5848 L6.58008,18.5848 C6.22483,18.5848 5.93555,18.8741 5.93555,19.2294 C5.93555,19.5846 6.22483,19.8739 6.58008,19.8739 L9.1582,19.8739 C9.51345,19.8739 9.80273,19.5846 9.80273,19.2294 C9.80273,18.8741 9.51345,18.5848 9.1582,18.5848 Z" id="Path"></path>
            <path d="M16.1523,29.2841 C15.7971,29.2841 15.5078,29.5733 15.5078,29.9286 C15.5078,30.2838 15.7971,30.5731 16.1523,30.5731 C16.5081,30.5731 16.7969,30.2838 16.7969,29.9286 C16.7969,29.5733 16.5081,29.2841 16.1523,29.2841 Z" id="Path"></path>
            <path d="M30.5559,0.151245 L4.00271,0.151245 C2.22521,0.151245 0.779297,1.59716 0.779297,3.37466 L0.779297,24.7723 C0.779297,26.5493 2.22496,27.995 4.00195,27.995 L12.7351,27.995 C12.5855,28.7297 11.9345,29.2841 11.1562,29.2841 C9.55701,29.2841 8.25586,30.5852 8.25586,32.1844 L8.25586,32.5067 C8.25586,32.8627 8.54439,33.1512 8.90039,33.1512 L25.6582,33.1512 C26.0142,33.1512 26.3027,32.8627 26.3027,32.5067 L26.3027,32.1844 C26.3027,30.5852 25.0016,29.2841 23.4023,29.2841 C22.6241,29.2841 21.973,28.7297 21.8235,27.995 L30.5566,27.995 C32.3336,27.995 33.779297,26.5493 33.779297,24.7723 L33.779297,3.37466 C33.779297,1.59716 32.3334,0.151245 30.5559,0.151245 L30.5559,0.151245 Z M2.06836,3.37466 C2.06836,2.30816 2.93621,1.44031 4.00271,1.44031 L7.56223,1.44031 L8.19115,2.72937 L6.58008,2.72937 C6.22483,2.72937 5.93555,3.01865 5.93555,3.3739 C5.93555,3.72915 6.22483,4.01843 6.58008,4.01843 L8.82008,4.01843 L9.44875,5.3075 L2.06836,5.3075 L2.06836,3.37466 Z M2.06836,6.59656 L11.0918,6.59656 L11.0918,21.5497 L2.06836,21.5497 L2.06836,6.59656 Z M23.4023,30.5731 C24.1806,30.5731 24.8316,31.1278 24.9812,31.8622 L9.5774,31.8622 C9.72695,31.1278 10.378,30.5731 11.1562,30.5731 C12.6465,30.5731 13.8781,29.4432 14.0388,27.995 L20.5198,27.995 C20.5724,28.4683 20.7399,28.9072 20.9927,29.2841 L18.7295,29.2841 C18.3742,29.2841 18.085,29.5733 18.085,29.9286 C18.085,30.2838 18.3742,30.5731 18.7295,30.5731 L23.4023,30.5731 Z M32.4902,24.7723 C32.4902,25.8386 31.6229,26.7059 30.5566,26.7059 L4.00195,26.7059 C2.93571,26.7059 2.06836,25.8386 2.06836,24.7723 L2.06836,22.8387 L32.4902,22.8387 L32.4902,24.7723 Z M32.4902,21.5497 L12.3867,21.5497 L12.3867,6.59656 L32.4902,6.59656 L32.4902,21.5497 Z M32.4902,5.3075 L10.8831,5.3075 L8.99657,1.44031 L30.5559,1.44031 C31.6224,1.44031 32.4902,2.30816 32.4902,3.37466 L32.4902,5.3075 Z" id="Shape"></path>
            <path d="M4.00195,2.72937 C3.64671,2.72937 3.35742,3.01865 3.35742,3.3739 C3.35742,3.72915 3.64671,4.01843 4.00195,4.01843 C4.3572,4.01843 4.64648,3.72915 4.64648,3.3739 C4.64648,3.01865 4.3572,2.72937 4.00195,2.72937 Z" id="Path"></path>
            <path d="M31.1367,3.3739 C31.1367,3.7299 30.8482,4.01843 30.4922,4.01843 C30.1362,4.01843 29.8477,3.7299 29.8477,3.3739 C29.8477,3.0179 30.1362,2.72937 30.4922,2.72937 C30.8482,2.72937 31.1367,3.0179 31.1367,3.3739 Z" id="Path"></path>
            <path d="M25.9805,3.3739 C25.9805,3.7299 25.6919,4.01843 25.3359,4.01843 C24.9799,4.01843 24.6914,3.7299 24.6914,3.3739 C24.6914,3.0179 24.9799,2.72937 25.3359,2.72937 C25.6919,2.72937 25.9805,3.0179 25.9805,3.3739 Z" id="Path"></path>
            <path d="M28.5586,3.3739 C28.5586,3.7299 28.2701,4.01843 27.9141,4.01843 C27.5581,4.01843 27.2695,3.7299 27.2695,3.3739 C27.2695,3.0179 27.5581,2.72937 27.9141,2.72937 C28.2701,2.72937 28.5586,3.0179 28.5586,3.3739 Z" id="Path"></path>
            <path d="M14.9836,14.0225 C15.3265,14.3163 15.7737,14.4633 16.3255,14.4633 C16.8925,14.4633 17.358,14.3191 17.7216,14.0303 C18.0852,13.7415 18.2669,13.347 18.2669,12.8467 C18.2669,12.6252 18.2204,12.4744 18.1277,12.3943 C18.0348,12.3145 17.8774,12.2745 17.6559,12.2745 C17.2792,12.2745 17.0808,12.3958 17.0602,12.638 C17.0499,12.7463 17.0383,12.8314 17.0255,12.8933 C17.0126,12.9552 16.9854,13.0338 16.9444,13.1292 C16.9028,13.2246 16.8346,13.2954 16.7392,13.342 C16.6438,13.3883 16.5239,13.4114 16.3797,13.4114 C15.9104,13.4114 15.6757,13.1536 15.6757,12.638 L15.6757,10.5883 C15.6757,10.073 15.9079,9.81491 16.3719,9.81491 C16.8152,9.81491 17.0448,10.047 17.0602,10.5111 C17.0758,10.7535 17.277,10.8746 17.6637,10.8746 C17.8802,10.8746 18.0348,10.8348 18.1277,10.7548 C18.2204,10.675 18.2669,10.5241 18.2669,10.3023 C18.2669,9.82272 18.0852,9.44632 17.7216,9.1729 C17.358,8.89973 16.8925,8.76302 16.3255,8.76302 C15.7737,8.76302 15.3265,8.91005 14.9836,9.20387 C14.6407,9.49793 14.4692,9.95943 14.4692,10.5883 L14.4692,12.638 C14.4692,13.2672 14.6407,13.7284 14.9836,14.0225 Z" id="Path"></path>
            <path d="M19.8299,14.3203 C19.9484,14.3848 20.0902,14.417 20.2553,14.417 C20.4203,14.417 20.562,14.3848 20.6806,14.3203 C20.7992,14.2559 20.8586,14.1642 20.8586,14.0457 L20.8586,12.1815 L21.3689,12.1815 L22.4286,14.239 C22.5059,14.3886 22.6348,14.4633 22.8153,14.4633 C22.9959,14.4633 23.1673,14.3964 23.3297,14.2622 C23.4921,14.1282 23.5734,13.9865 23.5734,13.8367 C23.5734,13.78 23.5603,13.7337 23.5347,13.6975 L22.591,11.9882 C23.2149,11.746 23.5268,11.2226 23.5268,10.4182 C23.5268,9.3149 22.8926,8.76302 21.6242,8.76302 L20.0232,8.76302 C19.9149,8.76302 19.8261,8.79927 19.7563,8.87128 C19.6868,8.94353 19.6520989,9.02863 19.6520989,9.12657 L19.6520989,14.0457 C19.6518,14.1642 19.7113,14.2559 19.8299,14.3203 Z M20.8586,9.81491 L21.6242,9.81491 C21.8511,9.81491 22.0238,9.87055 22.1424,9.98133 C22.2609,10.0921 22.3204,10.2764 22.3204,10.5342 C22.3204,10.7923 22.2609,10.9763 22.1424,11.0874 C22.0238,11.1981 21.8511,11.2535 21.6242,11.2535 L20.8586,11.2535 L20.8586,9.81491 Z" id="Shape"></path>
            <path d="M25.1194,14.3203 C25.2377,14.3848 25.3797,14.417 25.5446,14.417 C25.7098,14.417 25.8513,14.3848 25.9701,14.3203 C26.0887,14.2559 26.1479,14.1642 26.1479,14.0457 L26.1479,11.068 L26.8828,12.4137 C26.9601,12.5632 27.0862,12.638 27.2617,12.638 C27.4422,12.638 27.5762,12.5632 27.6638,12.4137 L28.4065,11.1453 L28.4065,14.0457 C28.4065,14.1642 28.4657,14.2559 28.5843,14.3203 C28.7029,14.3848 28.8446,14.417 29.0098,14.417 C29.1747,14.417 29.3164,14.3848 29.435,14.3203 C29.5536,14.2559 29.613,14.1642 29.613,14.0457 L29.613,9.36626 C29.613,9.16006 29.5551,9.00799 29.439,8.91005 C29.323,8.81211 29.18,8.76302 29.0098,8.76302 C28.7776,8.76302 28.6009,8.79776 28.4798,8.8675 C28.3587,8.93699 28.2235,9.10341 28.0739,9.36626 L27.2771,10.7585 L26.4805,9.36626 C26.3309,9.10341 26.1957,8.93699 26.0746,8.8675 C25.9533,8.79776 25.7768,8.76302 25.5446,8.76302 C25.3745,8.76302 25.2314,8.81211 25.1154,8.91005 C24.9993,9.00799 24.9414,9.16006 24.9414,9.36626 L24.9414,14.0457 C24.9414,14.1642 25.0006,14.2559 25.1194,14.3203 Z" id="Path"></path>
            <path d="M17.9238,24.7723 C17.9238,25.1283 17.6353,25.4169 17.2793,25.4169 C16.9233,25.4169 16.6348,25.1283 16.6348,24.7723 C16.6348,24.4163 16.9233,24.1278 17.2793,24.1278 C17.6353,24.1278 17.9238,24.4163 17.9238,24.7723 Z" id="Path"></path>
        </g>
    </g>
</svg>