<?xml version="1.0" encoding="UTF-8"?>
<svg width="33px" height="34px" viewBox="0 0 33 34" version="1.1" xmlns="http://www.w3.org/2000/svg" xmlns:xlink="http://www.w3.org/1999/xlink">
    <title>cubes</title>
    <g id="Page-1" stroke="none" stroke-width="1" fill="none" fill-rule="evenodd">
        <g id="cubes" fill="#000000" fill-rule="nonzero">
            <path d="M17.8929,10.6575 L17.5304,10.6575 L17.5304,6.14574 C17.5304,5.85519 17.3418,5.60053 17.0701,5.52403 C16.7985,5.44746 16.5104,5.56792 16.3672,5.81813 L15.4915,7.34792 C15.316,7.65446 15.4147,8.04962 15.7119,8.23061 C15.8917,8.34005 16.1028,8.34604 16.2804,8.26599 L16.2804,10.6575 L15.918,10.6575 C15.5728,10.6575 15.293,10.946 15.293,11.302 C15.293,11.658 15.5728,11.9465 15.918,11.9465 L17.8929,11.9465 C18.238,11.9465 18.5179,11.658 18.5179,11.302 C18.5179,10.946 18.238,10.6575 17.8929,10.6575 Z" id="Path"></path>
            <path d="M10.5946,26.5128 L9.24026,26.5128 C10.0171,25.6879 10.8513,24.53 10.8513,23.3616 C10.8513,22.1624 10.0699,21.3566 8.90707,21.3566 C7.835,21.3566 6.96275,22.2561 6.96275,23.3616 C6.96275,23.7176 7.24263,24.0062 7.58775,24.0062 C7.93288,24.0062 8.21275,23.7176 8.21275,23.3616 C8.21275,22.9669 8.52419,22.6456 8.90707,22.6456 C9.52938,22.6456 9.60132,23.0543 9.60132,23.3616 C9.60132,24.556 7.83563,26.1679 7.21744,26.638 C6.99988,26.803 6.90963,27.0935 6.99382,27.3582 C7.07807,27.6229 7.31763,27.8019 7.58769,27.8019 L10.5945,27.8019 C10.9396,27.8019 11.2195,27.5133 11.2195,27.1573 C11.2195,26.8014 10.9397,26.5128 10.5946,26.5128 Z" id="Path"></path>
            <path d="M26.2556,23.2989 C26.2557,22.2346 25.4161,21.3687 24.3841,21.3687 L23.3026,21.3687 C22.9574,21.3687 22.6776,21.6573 22.6776,22.0132 C22.6776,22.3692 22.9574,22.6578 23.3026,22.6578 L24.3841,22.6578 C24.7268,22.6578 25.0057,22.9453 25.0057,23.2988 C25.0057,23.6202 24.775,23.8863 24.4756,23.9321 C24.4453,23.9307 24.4148,23.9298 24.3841,23.9298 L23.3026,23.9298 C22.9574,23.9298 22.6776,24.2183 22.6776,24.5743 C22.6776,24.9303 22.9574,25.2188 23.3026,25.2188 L23.7376,25.2188 C23.7725,25.2251 23.8082,25.2289 23.8447,25.2289 L24.3841,25.2289 C24.4147,25.2289 24.4452,25.228 24.4756,25.2266 C24.7749,25.2724 25.0056,25.5385 25.0056,25.8599 C25.0056,26.2133 24.7267,26.5009 24.3841,26.5009 L23.3025,26.5009 C22.9574,26.5009 22.6775,26.7895 22.6775,27.1455 C22.6775,27.5014 22.9574,27.79 23.3025,27.79 L24.3841,27.79 C25.4161,27.79 26.2556,26.9241 26.2556,25.8599 C26.2556,25.3689 26.0766,24.9203 25.7827,24.5794 C26.0766,24.2384 26.2556,23.7899 26.2556,23.2989 Z" id="Path"></path>
            <path d="M29.6543,16.007 L24.4651,16.007 C24.8584,15.4679 25.0918,14.7983 25.0918,14.0734 L25.0918,11.1944 C25.0918,10.8385 24.8119,10.5499 24.4668,10.5499 C24.1217,10.5499 23.8418,10.8385 23.8418,11.1944 L23.8418,14.0734 C23.8418,15.1395 23.0007,16.007 21.9668,16.007 L11.5918,16.007 C10.5579,16.007 9.7168,15.1395 9.7168,14.0734 L9.7168,3.37415 C9.7168,2.30796 10.5579,1.44055 11.5918,1.44055 L21.9668,1.44055 C23.0007,1.44055 23.8418,2.30796 23.8418,3.37415 L23.8418,5.82336 C23.8418,6.17934 24.1217,6.4679 24.4668,6.4679 C24.8119,6.4679 25.0918,6.17934 25.0918,5.82336 L25.0918,3.37415 C25.0918,1.59717 23.6899,0.151489 21.9668,0.151489 L11.5918,0.151489 C9.86867,0.151489 8.4668,1.59717 8.4668,3.37415 L8.4668,14.0734 C8.4668,14.7983 8.70023,15.4679 9.09348,16.007 L3.9043,16.007 C2.18117,16.007 0.779297,17.4526 0.779297,19.2296 L0.779297,29.9288 C0.779297,31.7058 2.18117,33.1515 3.9043,33.1515 L14.279297,33.1515 C15.3005,33.1515 16.2087,32.6437 16.779297,31.8602 C17.3499,32.6437 18.2581,33.1515 19.279297,33.1515 L29.6543,33.1515 C31.3774,33.1515 32.779297,31.7058 32.779297,29.9288 L32.779297,19.2296 C32.779297,17.4526 31.3774,16.007 29.6543,16.007 Z M16.1543,29.9288 C16.1543,30.995 15.3132,31.8624 14.2793,31.8624 L3.9043,31.8624 C2.87042,31.8624 2.0293,30.995 2.0293,29.9288 L2.0293,19.2296 C2.0293,18.1634 2.87042,17.296 3.9043,17.296 L14.2793,17.296 C15.3132,17.296 16.1543,18.1634 16.1543,19.2296 L16.1543,29.9288 Z M31.5293,29.9288 C31.5293,30.995 30.6882,31.8624 29.6543,31.8624 L19.2793,31.8624 C18.2454,31.8624 17.4043,30.995 17.4043,29.9288 L17.4043,19.2296 C17.4043,18.1634 18.2454,17.296 19.2793,17.296 L29.6543,17.296 C30.6882,17.296 31.5293,18.1634 31.5293,19.2296 L31.5293,29.9288 Z" id="Shape"></path>
            <path d="M24.9086,8.26807 C24.7924,8.14819 24.6312,8.07922 24.4668,8.07922 C24.3024,8.07922 24.1412,8.14819 24.0249,8.26807 C23.9087,8.38795 23.8418,8.55424 23.8418,8.72375 C23.8418,8.89327 23.9086,9.05956 24.0249,9.17944 C24.1412,9.29932 24.3024,9.36829 24.4668,9.36829 C24.6312,9.36829 24.7924,9.29932 24.9086,9.17944 C25.0249,9.05956 25.0918,8.89327 25.0918,8.72375 C25.0918,8.55424 25.0249,8.38795 24.9086,8.26807 Z" id="Path"></path>
        </g>
    </g>
</svg>