<?xml version="1.0" encoding="UTF-8"?>
<svg width="71px" height="71px" viewBox="0 0 71 71" version="1.1" xmlns="http://www.w3.org/2000/svg" xmlns:xlink="http://www.w3.org/1999/xlink">
    <title>diamond</title>
    <g id="Page-1" stroke="none" stroke-width="1" fill="none" fill-rule="evenodd">
        <g id="diamond" fill="#FFFFFF" fill-rule="nonzero">
            <path d="M70.773,29.8936 L59.4033,12.5562 C59.1468,12.1654 58.7111,11.9299 58.2438,11.9299 L12.8103,11.9299 C12.344,11.9299 11.909,12.1643 11.6524,12.5538 L0.264411,29.8395 C0.210191,29.9143 0.163181,29.995 0.123937,30.0812 C-0.10085,30.5769 -0.0148738,31.158 0.343732,31.5674 L6.11595,38.1581 C6.62058,38.7342 7.49643,38.7922 8.07247,38.2877 C8.64851,37.7831 8.70648,36.9071 8.20199,36.3312 L4.4444,32.0405 L23.0959,32.0405 L32.4683,64.0387 L21.8773,51.9458 C21.3728,51.3696 20.4966,51.3116 19.9207,51.8161 C19.3447,52.3208 19.2867,53.1967 19.7912,53.7727 L34.4613,70.523 C34.7245,70.8236 35.1049,70.9961 35.5044,70.9961 C35.9041,70.9961 36.2842,70.8236 36.5474,70.5228 L52.166,52.6852 C52.6706,52.109 52.6125,51.233 52.0362,50.7287 C51.4598,50.224 50.5839,50.2821 50.0796,50.8585 L38.5408,64.0369 L47.9128,32.0404 L66.5565,32.0404 L57.9335,41.8889 C57.4288,42.4651 57.4869,43.3411 58.0633,43.8454 C58.3263,44.0759 58.6519,44.1889 58.9761,44.1889 C59.3619,44.1889 59.7458,44.0287 60.0198,43.7156 L70.6567,31.5673 C71.0669,31.0988 71.1145,30.4143 70.773,29.8936 Z M3.96237,29.2674 L12.8076,15.841 L21.6125,29.2674 L3.96237,29.2674 Z M15.3777,14.7032 L32.9368,14.7032 L24.1573,28.0908 L15.3777,14.7032 Z M35.5043,15.8451 L44.3065,29.2674 L26.7021,29.2674 L35.5043,15.8451 Z M35.5043,64.5383 L25.9855,32.0405 L45.023,32.0405 L35.5043,64.5383 Z M46.874,28.1256 L38.0718,14.7032 L55.6764,14.7032 L46.874,28.1256 Z M49.4415,29.2674 L58.2438,15.8451 L67.0459,29.2674 L49.4415,29.2674 Z" id="Shape"></path>
            <path d="M21.7974,45.348 C18.2206,45.348 15.3106,42.438 15.3106,38.8612 C15.3106,38.0954 14.6898,37.4746 13.924,37.4746 C13.1583,37.4746 12.5374,38.0954 12.5374,38.8612 C12.5374,42.438 9.62741,45.348 6.05064,45.348 C5.28503,45.348 4.66406,45.9688 4.66406,46.7346 C4.66406,47.5003 5.28503,48.1211 6.05064,48.1211 C9.62741,48.1211 12.5374,51.0312 12.5374,54.6079 C12.5374,55.3737 13.1584,55.9945 13.924,55.9945 C14.6896,55.9945 15.3106,55.3737 15.3106,54.6079 C15.3106,51.0312 18.2206,48.1211 21.7974,48.1211 C22.5631,48.1211 23.184,47.5003 23.184,46.7346 C23.184,45.9688 22.5631,45.348 21.7974,45.348 Z M13.924,49.7383 C13.1681,48.5205 12.1381,47.4906 10.9204,46.7346 C12.1381,45.9787 13.168,44.9487 13.924,43.7308 C14.6799,44.9486 15.71,45.9785 16.9276,46.7346 C15.71,47.4906 14.6801,48.5204 13.924,49.7383 Z" id="Shape"></path>
            <path d="M69.6123,5.54998 C67.3186,5.54998 65.4525,3.68388 65.4525,1.39024 C65.4525,0.624496 64.8316,0.00366211 64.066,0.00366211 C63.3003,0.00366211 62.6794,0.624496 62.6794,1.39024 C62.6794,3.68388 60.8133,5.54998 58.5196,5.54998 C57.754,5.54998 57.1331,6.17082 57.1331,6.93656 C57.1331,7.70231 57.754,8.32314 58.5196,8.32314 C60.8133,8.32314 62.6794,10.1893 62.6794,12.4829 C62.6794,13.2486 63.3003,13.8695 64.066,13.8695 C64.8316,13.8695 65.4525,13.2486 65.4525,12.4829 C65.4525,10.1893 67.3186,8.32314 69.6123,8.32314 C70.3779,8.32314 70.9989,7.70231 70.9989,6.93656 C70.9989,6.17082 70.3779,5.54998 69.6123,5.54998 Z M64.066,8.32744 C63.6703,7.80077 63.2018,7.33219 62.6751,6.93656 C63.2018,6.54093 63.6703,6.07236 64.066,5.54568 C64.4616,6.07236 64.9302,6.54093 65.4568,6.93656 C64.9302,7.33206 64.4614,7.80077 64.066,8.32744 Z" id="Shape"></path>
            <path d="M55.8556,46.5064 C55.5978,46.2471 55.24,46.1001 54.8755,46.1001 C54.5106,46.1001 54.1545,46.2471 53.8952,46.5064 C53.6373,46.7643 53.4889,47.1221 53.4889,47.4867 C53.4889,47.8512 53.6371,48.209 53.8952,48.4669 C54.1531,48.7249 54.5106,48.8733 54.8755,48.8733 C55.2402,48.8733 55.5978,48.7249 55.8556,48.4669 C56.1135,48.209 56.2621,47.8512 56.2621,47.4867 C56.2621,47.1221 56.1137,46.7643 55.8556,46.5064 Z" id="Path"></path>
        </g>
    </g>
</svg>