<?xml version="1.0" encoding="UTF-8"?>
<svg width="60px" height="60px" viewBox="0 0 60 60" version="1.1" xmlns="http://www.w3.org/2000/svg" xmlns:xlink="http://www.w3.org/1999/xlink">
    <title>digital</title>
    <g id="Page-1" stroke="none" stroke-width="1" fill="none" fill-rule="evenodd">
        <g id="digital" fill="#FFFFFF" fill-rule="nonzero">
            <path d="M55,0 L5.00004,0 C2.23863,0 0,2.23863 0,5.00004 L0,42.5 C0,45.2614 2.23863,47.5001 5.00004,47.5001 L26.25,47.5001 L26.25,45 L5.00004,45 C3.61934,45 2.50008,43.8807 2.50008,42.5 L2.50008,5.00004 C2.50008,3.61934 3.61934,2.50008 5.00004,2.50008 L55.0001,2.50008 C56.3808,2.50008 57.5,3.61934 57.5,5.00004 L57.5,7.5 L60,7.5 L60,5.00004 C60,2.23863 57.7615,0 55,0 Z" id="Path"></path>
            <path d="M12.5,55 L26.25,55 L26.25,52.5 L12.5,52.5 C10.4289,52.5 8.75,54.1789 8.75,56.25 C8.75,58.3211 10.4289,60 12.5,60 L26.25,60 L26.25,57.5 L12.5,57.5 C11.8096,57.5 11.25,56.9404 11.25,56.25 C11.25,55.5596 11.8096,55 12.5,55 Z" id="Path"></path>
            <path d="M23.7489,52.5 L23.7489,46.25 L21.2489,46.25 L21.2489,53.75 C21.2489,54.4404 21.8086,55 22.4989,55 L26.2489,55 L26.2489,52.5 L23.7489,52.5 Z" id="Path"></path>
            <polygon id="Path" points="26.25 37.5 0 37.5 0 40 26.25 40"></polygon>
            <polygon id="Path" points="26.25 41.25 21.25 41.25 21.25 43.75 26.25 43.75"></polygon>
            <path d="M8.75,11.25 C6.67895,11.25 5,12.9289 5,15 C5,17.0711 6.67895,18.75 8.75,18.75 C10.8211,18.75 12.5,17.0711 12.5,15 C12.5,12.9289 10.8211,11.25 8.75,11.25 Z M8.75,16.25 C8.05965,16.25 7.49996,15.6904 7.49996,15 C7.49996,14.3096 8.05965,13.75 8.75,13.75 C9.44035,13.75 10,14.3096 10,15 C10,15.6904 9.44035,16.25 8.75,16.25 Z" id="Shape"></path>
            <path d="M8.75,21.25 C6.67895,21.25 5,22.9289 5,25 C5,27.0711 6.67895,28.75 8.75,28.75 C10.8211,28.75 12.5,27.0711 12.5,25 C12.5,22.9289 10.8211,21.25 8.75,21.25 Z M8.75,26.25 C8.05965,26.25 7.49996,25.6904 7.49996,25 C7.49996,24.3096 8.05965,23.75 8.75,23.75 C9.44035,23.75 10,24.3096 10,25 C9.99992,25.6904 9.44035,26.25 8.75,26.25 Z" id="Shape"></path>
            <path d="M20,16.25 C17.9289,16.25 16.25,17.9289 16.25,20 C16.25,22.0711 17.9289,23.75 20,23.75 C22.0711,23.75 23.75,22.0711 23.75,20 C23.75,17.9289 22.0711,16.25 20,16.25 Z M20,21.2499 C19.3096,21.2499 18.75,20.6902 18.75,19.9999 C18.75,19.3095 19.3096,18.7498 20,18.7498 C20.6904,18.7498 21.25,19.3095 21.25,19.9999 C21.2499,20.6903 20.6904,21.2499 20,21.2499 Z" id="Shape"></path>
            <path d="M13.75,28.75 C11.6789,28.75 10,30.4289 10,32.5 C10,34.5711 11.6789,36.25 13.75,36.25 C15.8211,36.25 17.5,34.5711 17.5,32.5 C17.5,30.4289 15.8211,28.75 13.75,28.75 Z M13.75,33.75 C13.0596,33.75 12.5,33.1904 12.5,32.5 C12.5,31.8097 13.0596,31.25 13.75,31.25 C14.4403,31.25 15,31.8097 15,32.5 C15,33.1904 14.4403,33.75 13.75,33.75 Z" id="Shape"></path>
            <path d="M21.49,26.249999 L15.4637,23.8387 C15.3162,23.7799 15.1588,23.7498 15,23.749999 L11.25,23.749999 L11.25,26.249999 L14.76,26.249999 L20.7863,28.6612 C20.9338,28.72 21.0912,28.7502 21.25,28.7499022 L26.25,28.7499022 L26.25,26.249999 L21.49,26.249999 Z" id="Path"></path>
            <polygon id="Path" points="26.25 18.75 22.5 18.75 22.5 21.25 26.25 21.25"></polygon>
            <path d="M22.7961,32.5 L20.5598,31.3813 C20.3863,31.2948 20.195,31.2498 20.0011,31.2499993 L16.2511,31.2499993 L16.2511,33.7501 L19.7061,33.7501 L21.9424,34.8689 C22.116,34.9554 22.3072,35.0003 22.5012,35.0001007 L26.2512,35.0001007 L26.2512,32.5002 L22.7961,32.5002 L22.7961,32.5 Z" id="Path"></path>
            <polygon id="Path" points="58.75 18.75 28.75 18.75 28.75 21.25 58.75 21.25"></polygon>
            <path d="M52.5,13.75 L52.5,15 L36.25,15 L36.25,13.75 L33.75,13.75 L33.75,16.25 C33.75,16.9403 34.3097,17.5 35,17.5 L53.75,17.5 C54.4404,17.5 55.0001,16.9403 55.0001,16.25 L55.0001,13.75 L52.5,13.75 Z" id="Path"></path>
            <path d="M53.7501,23.75 L32.5,23.75 L32.5,26.25 L52.5,26.25 L52.5,28.7499 L32.5,28.7499 L32.5,31.2499 L53.75,31.2499 C54.4403,31.2499 55,30.6902 55,29.9998 L55,24.9998 C55,24.3096 54.4404,23.75 53.7501,23.75 Z" id="Path"></path>
            <path d="M55,36.25 L55,33.75 L33.75,33.75 C33.0597,33.75 32.5,34.3097 32.5,35 L32.5,40.0001 C32.5,40.6904 33.0597,41.2501 33.75,41.2501 L55,41.2501 L55,38.7502 L35.0001,38.7502 L35.0001,36.2502 L55,36.2502 L55,36.25 Z" id="Path"></path>
            <polygon id="Path" points="36.25 43.75 33.75 43.75 33.75 46.25 36.25 46.25"></polygon>
            <polygon id="Path" points="36.25 48.75 33.75 48.75 33.75 51.25 36.25 51.25"></polygon>
            <polygon id="Path" points="42.5 43.75 40 43.75 40 46.25 42.5 46.25"></polygon>
            <polygon id="Path" points="42.5 48.75 40 48.75 40 51.25 42.5 51.25"></polygon>
            <polygon id="Path" points="48.75 43.75 46.25 43.75 46.25 46.25 48.75 46.25"></polygon>
            <polygon id="Path" points="48.75 48.75 46.25 48.75 46.25 51.25 48.75 51.25"></polygon>
            <polygon id="Path" points="55 43.75 52.5 43.75 52.5 46.25 55 46.25"></polygon>
            <polygon id="Path" points="55 48.75 52.5 48.75 52.5 51.25 55 51.25"></polygon>
            <polygon id="Path" points="48.75 52.5 40 52.5 40 55 48.75 55"></polygon>
            <path d="M55,10 L22.2887,10 C21.3821,10 20.4927,10.2467 19.7149,10.7125 L15.2487,13.3925 C14.8598,13.6262 14.4148,13.7498 13.9611,13.75 L11.25,13.75 L11.25,16.25 L13.9613,16.25 C14.8678,16.2496 15.7573,16.0033 16.535,15.5375 L21.0013,12.8575 C21.3901,12.6237 21.8352,12.5002 22.2888,12.5 L55.0001,12.5 C56.3808,12.5 57.5,13.6192 57.5,14.9999 L57.5,54.9999 C57.5,56.3806 56.3808,57.4998 55.0001,57.4998 L32.5001,57.4998 C31.1194,57.4998 30.0001,56.3806 30.0001,54.9999 L30.0001,15 L27.5002,15 L27.5002,55 C27.5002,57.7614 29.7387,60 32.5002,60 L55.0002,60 C57.7615,60 60,57.7615 60,55 L60,15 C60,12.2386 57.7615,10 55,10 Z" id="Path"></path>
            <polygon id="Path" points="20 5 13.75 5 13.75 7.49996 20 7.49996"></polygon>
            <polygon id="Path" points="25 5 22.5 5 22.5 7.49996 25 7.49996"></polygon>
            <polygon id="Path" points="30 5 27.5 5 27.5 7.49996 30 7.49996"></polygon>
            <polygon id="Path" points="35 5 32.5 5 32.5 7.49996 35 7.49996"></polygon>
            <polygon id="Path" points="40 5 37.5 5 37.5 7.49996 40 7.49996"></polygon>
        </g>
    </g>
</svg>