<?xml version="1.0" encoding="UTF-8"?>
<svg width="33px" height="34px" viewBox="0 0 33 34" version="1.1" xmlns="http://www.w3.org/2000/svg" xmlns:xlink="http://www.w3.org/1999/xlink">
    <title>emoticons</title>
    <g id="Page-1" stroke="none" stroke-width="1" fill="none" fill-rule="evenodd">
        <g id="emoticons" fill="#000000" fill-rule="nonzero">
            <path d="M3.3601725,14.122 C3.98443,14.122 3.98543,13.1556 3.3601725,13.1556 C2.73594,13.1556 2.73488,14.122 3.3601725,14.122 Z" id="Path"></path>
            <path d="M8.5684,17.0757 C4.27235,17.0757 0.777344,20.6807 0.777344,25.1117 C0.777344,29.3925 4.41798,33.1476 8.5684,33.1476 C12.8644,33.1476 16.3595,29.5427 16.3595,25.1117 C16.3595,20.6807 12.8644,17.0757 8.5684,17.0757 Z M8.5684,32.1813 C6.84154,32.1813 5.0972,31.4033 3.78255,30.0467 C-0.616585,25.6183 2.54206,18.0471 8.56852,18.0421 C17.6608,18.4304 17.6587,31.7942 8.5684,32.1813 Z" id="Shape"></path>
            <path d="M5.05376,23.8214 C5.31259,23.8214 5.52232,23.6051 5.52232,23.3382 C5.52232,22.9979 5.79071,22.7211 6.12051,22.7211 C6.45038,22.7211 6.71877,22.9979 6.71877,23.3382 C6.73982,23.9775 7.63464,23.9779 7.65588,23.3382 C7.65588,22.4651 6.96717,21.7548 6.12051,21.7548 C5.27392,21.7548 4.58521,22.4651 4.58521,23.3383 C4.58521,23.6051 4.79499,23.8214 5.05376,23.8214 Z" id="Path"></path>
            <path d="M9.97564,23.8214 C10.2345,23.8214 10.4442,23.6051 10.4442,23.3382 C10.4442,22.9979 10.7126,22.7211 11.0424,22.7211 C11.3723,22.7211 11.6406,22.9979 11.6406,23.3382 C11.6617,23.9775 12.5565,23.9779 12.5778,23.3382 C12.5778,22.4651 11.889,21.7548 11.0424,21.7548 C10.1958,21.7548 9.50708,22.4651 9.50708,23.3383 C9.50708,23.6051 9.71681,23.8214 9.97564,23.8214 Z" id="Path"></path>
            <path d="M3.01416,25.0929 C3.01416,26.2095 3.32641,27.2931 3.91716,28.2269 C4.05861,28.4505 4.34893,28.5134 4.56565,28.3676 C4.78237,28.2218 4.84341,27.9224 4.70203,27.6989 C4.29663,27.0581 4.04899,26.3323 3.97483,25.5761 L13.19,25.5761 C12.8996,28.9217 9.20506,30.9508 6.34042,29.2728 C5.7874,28.9818 5.35414,29.7887 5.88592,30.1179 C9.5343,32.2463 14.1866,29.4187 14.1505,25.0929 C14.1507088,24.8261 13.9408,24.6097 13.682,24.6097 L3.48272,24.6097 C3.22395,24.6097 3.01416,24.826 3.01416,25.0929 Z" id="Path"></path>
            <path d="M13.7588,16.2332 C15.4726,16.2332 17.1448,15.6458 18.4993,14.5743 C18.8853,14.7909 19.1688,14.907 19.2071,14.9224 C19.3203,14.9662 19.4335,14.9662 19.5467,14.9224 C19.6816,14.8683 22.851,13.5688 22.8512,11.022 C22.8512,10.1006 22.2926,9.31295 21.5104,9.00847 C21.7041,7.04539 21.192,5.06781 20.0655,3.47776 C19.7208,2.98863 18.9471,3.53439 19.3074,4.04581 C20.2932,5.4373 20.7437,7.16645 20.5806,8.88555 C20.1236,8.93445 19.7028,9.13913 19.3773,9.46229 C19.0019,9.08933 18.4996,8.87376 17.9611,8.87369 C16.8266,8.87356 15.9034,9.83706 15.9033,11.0214 C15.9032,12.3701 16.792,13.3691 17.6482,14.0186 C13.1382,17.2682 7.0089,13.7321 6.90488,8.19708 C6.85752,2.59061 13.1409,-0.843852 17.6054,2.34508 C18.0904,2.68493 18.6392,1.90111 18.1321,1.5458 C13.0554,-2.07962 5.91454,1.82322 5.96783,8.19734 C5.96776,12.478 9.6084,16.2332 13.7588,16.2332 Z M16.8403,11.0216 C16.8404,10.3701 17.3431,9.84016 17.961,9.84016 C18.3832,9.84016 18.7653,10.0868 18.9584,10.4838 C19.0392,10.6497 19.2064,10.7345 19.3773,10.7504 C19.5545,10.7504 19.7166,10.6473 19.796,10.484 C19.9892,10.087 20.3714,9.84042 20.7936,9.84042 C21.4115,9.84048 21.9141,10.3706 21.914,11.022 C21.9139,12.6277 19.9692,13.6666 19.3765,13.9459 C18.7824,13.6674 16.8402,12.6332 16.8403,11.0216 Z" id="Shape"></path>
            <path d="M13.5606,9.17412 C12.9587,9.15936 12.948,10.1354 13.5529,10.1405 C13.7808,10.1424 13.9648,10.329 13.9629,10.5563 C13.9617,10.7108 13.8749,10.8505 13.7363,10.9208 C13.3966,11.093 13.3926,11.6065 13.7294,11.7845 C13.8669,11.857 13.9515,11.9982 13.9503,12.1527 C13.9485,12.3789 13.7635,12.5616 13.5372,12.5616 C12.9236,12.5537 12.9232,13.528 13.5374,13.528 C14.2768,13.528 14.8813,12.917 14.8874,12.1606 C14.8897,11.8677 14.8027,11.5901 14.6455,11.3603 C14.8062,11.1333 14.8977,10.8571 14.9001,10.5643 C14.9061,9.80395 14.3052,9.18037 13.5606,9.17412 Z" id="Path"></path>
            <path d="M9.76221,6.97242 C9.78389,7.61217 10.6779,7.61185 10.6993,6.97242 C10.6993,6.63211 10.9677,6.35534 11.2975,6.35534 C11.6274,6.35534 11.8958,6.63218 11.8958,6.97248 C11.9168,7.61179 12.8116,7.61217 12.8329,6.97248 C12.7485,4.87159 9.84617,4.87236 9.76221,6.97242 Z" id="Path"></path>
            <path d="M15.6212,6.97264 C15.6542,6.15378 16.785,6.15436 16.8176,6.97264 C16.8387,7.61195 17.7335,7.61233 17.7548,6.97264 C17.7548,6.09946 17.066,5.38916 16.2194,5.38916 C15.3728,5.38916 14.6841,6.09953 14.6841,6.9727 C14.6841,7.57735 15.6212,7.60486 15.6212,6.97264 Z" id="Path"></path>
            <path d="M32.405,19.8044 C32.7651,18.6159 32.3196,18.0096 31.3984,17.6783 C28.4507,13.0797 21.4767,13.0451 18.5502,17.679 C17.5125,17.8155 17.2636,18.8885 17.5558,19.7632 C15.9043,24.846 19.7699,30.3291 24.9741,30.2618 C30.0145,30.2892 34.0508,24.7782 32.405,19.8044 Z M31.2464,18.6342 C31.5207,18.6862 31.6366,18.8547 31.5938,19.1397 L30.7948,21.9272 C30.624,22.5525 30.0649,22.9891 29.4352,22.9891 L27.8967,22.9891 C27.2742,22.9891 26.7321,22.5772 26.5477,21.9642 L25.7652,19.3638 C26.547,19.079 28.495,18.5067 31.2464,18.6342 Z M24.974,15.1563 C26.997,15.1563 28.9034,16.0774 30.1997,17.6513 C27.3678,17.692 25.531,18.4049 25.0914,18.5944 L24.8567,18.5944 C24.4171,18.4049 22.5807,17.6922 19.7484,17.6513 C21.0448,16.0777 22.952,15.1563 24.974,15.1563 Z M18.4099,18.7983 C18.4501,18.7402 18.5414,18.6416 18.7017,18.6342 C20.5352,18.5491 22.4418,18.7343 24.1826,19.3648 L23.4004,21.9641 C23.2159,22.5772 22.6737,22.9891 22.0513,22.9891 L20.5129,22.9891 C19.8831,22.9891 19.324,22.5525 19.1516,21.9212 L18.3543,19.1397 C18.3207,19.0225 18.341,18.898 18.4099,18.7983 Z M29.7599,27.1609 C25.3107,31.8526 17.7507,28.1966 18.1336,21.7788 L18.2512,22.1892 C18.5352,23.2293 19.4653,23.9556 20.5129,23.9556 L22.0513,23.9556 C23.0866,23.9556 23.9885,23.2704 24.2954,22.2506 L24.974,19.9953 L25.6526,22.2506 C25.9595,23.2704 26.8613,23.9556 27.8967,23.9556 L29.4352,23.9556 C30.4827,23.9556 31.4127,23.2293 31.6952,22.1952 L31.8143,21.7796 C31.9423,23.7328 31.1836,25.6858 29.7599,27.1609 Z" id="Shape"></path>
            <path d="M27.3055,25.2539 C26.0762,26.5751 23.8698,26.575 22.6405,25.2539 C22.1887,24.8175 21.5537,25.4683 21.9779,25.9372 C23.556,27.6333 26.3901,27.6334 27.9683,25.9371 C28.3912,25.4697 27.7599,24.8169 27.3055,25.2539 Z" id="Path"></path>
            <path d="M19.9169,20.89 C20.0367,20.89 20.1567,20.8428 20.2482,20.7485 L20.9148,20.0611 C21.3293,19.6335 20.6856,18.9308 20.2521,19.3778 L19.5856,20.0651 C19.303,20.3565 19.4933,20.89 19.9169,20.89 Z" id="Path"></path>
            <path d="M20.7764,22.0623 C20.9973,22.251 21.2182,22.251 21.4391,22.0623 L22.9345,20.5201 C23.3492,20.0925 22.7054,19.3898 22.2718,19.8368 L20.7764,21.3789 C20.5934,21.5676 20.5934,21.8735 20.7764,22.0623 Z" id="Path"></path>
            <path d="M27.3512,20.89 C27.4711,20.89 27.591,20.8428 27.6825,20.7485 L28.3491,20.0611 C28.7637,19.6335 28.1199,18.9308 27.6864,19.3778 L27.0199,20.0651 C26.7373,20.3565 26.9276,20.89 27.3512,20.89 Z" id="Path"></path>
            <path d="M28.2115,22.0623 C28.4324,22.251 28.6533,22.251 28.8741,22.0623 L30.3696,20.5201 C30.7842,20.0925 30.1404,19.3898 29.7069,19.8368 L28.2115,21.3789 C28.0285,21.5676 28.0285,21.8735 28.2115,22.0623 Z" id="Path"></path>
            <path d="M24.7735,5.45212 C25.3978,5.45212 25.3988,4.48572 24.7735,4.48572 C24.1493,4.48572 24.1482,5.45212 24.7735,5.45212 Z" id="Path"></path>
            <path d="M28.0321,11.8343 C28.6563,11.8343 28.6573,10.8679 28.0321,10.8679 C27.4078,10.8679 27.4068,11.8343 28.0321,11.8343 Z" id="Path"></path>
            <path d="M18.4336,31.0538 C17.8094,31.0538 17.8084,32.0202 18.4336,32.0202 C19.0579,32.0202 19.0589,31.0538 18.4336,31.0538 Z" id="Path"></path>
        </g>
    </g>
</svg>