<svg width="48" height="48" viewBox="0 0 48 48" fill="none" xmlns="http://www.w3.org/2000/svg">
<path d="M34.4311 28.5369C34.6178 26.9969 34.7578 25.4569 34.7578 23.8702C34.7578 22.2835 34.6178 20.7435 34.4311 19.2035H42.3178C42.6911 20.6969 42.9244 22.2602 42.9244 23.8702C42.9244 25.4802 42.6911 27.0435 42.3178 28.5369H34.4311ZM30.3011 41.5102C31.7011 38.9202 32.7744 36.1202 33.5211 33.2035H40.4044C38.1438 37.0962 34.5574 40.0449 30.3011 41.5102ZM29.7178 28.5369H18.7978C18.5644 26.9969 18.4244 25.4569 18.4244 23.8702C18.4244 22.2835 18.5644 20.7202 18.7978 19.2035H29.7178C29.9278 20.7202 30.0911 22.2835 30.0911 23.8702C30.0911 25.4569 29.9278 26.9969 29.7178 28.5369ZM24.2578 42.4435C22.3211 39.6435 20.7578 36.5402 19.8011 33.2035H28.7144C27.7578 36.5402 26.1944 39.6435 24.2578 42.4435ZM14.9244 14.5369H8.11111C10.3484 10.6337 13.9323 7.68033 18.1911 6.2302C16.7911 8.8202 15.7411 11.6202 14.9244 14.5369ZM8.11111 33.2035H14.9244C15.7411 36.1202 16.7911 38.9202 18.1911 41.5102C13.9412 40.0441 10.3624 37.0949 8.11111 33.2035ZM6.19777 28.5369C5.82444 27.0435 5.59111 25.4802 5.59111 23.8702C5.59111 22.2602 5.82444 20.6969 6.19777 19.2035H14.0844C13.8978 20.7435 13.7578 22.2835 13.7578 23.8702C13.7578 25.4569 13.8978 26.9969 14.0844 28.5369H6.19777ZM24.2578 5.27353C26.1944 8.07353 27.7578 11.2002 28.7144 14.5369H19.8011C20.7578 11.2002 22.3211 8.07353 24.2578 5.27353ZM40.4044 14.5369H33.5211C32.7908 11.6469 31.7094 8.85729 30.3011 6.2302C34.5944 7.7002 38.1644 10.6635 40.4044 14.5369ZM24.2578 0.536865C11.3544 0.536865 0.924438 11.0369 0.924438 23.8702C0.924438 30.0586 3.38276 35.9935 7.75861 40.3694C9.92531 42.5361 12.4976 44.2548 15.3285 45.4274C18.1594 46.6 21.1936 47.2035 24.2578 47.2035C30.4462 47.2035 36.3811 44.7452 40.7569 40.3694C45.1328 35.9935 47.5911 30.0586 47.5911 23.8702C47.5911 20.806 46.9876 17.7718 45.815 14.9409C44.6424 12.11 42.9236 9.53774 40.7569 7.37104C38.5902 5.20434 36.018 3.48562 33.1871 2.31301C30.3561 1.1404 27.322 0.536865 24.2578 0.536865Z" fill="white"/>
</svg>
