<svg width="15" height="15" viewBox="0 0 15 15" fill="none" xmlns="http://www.w3.org/2000/svg">
<path d="M12.2513 0.854248H2.58763C1.49657 0.854248 0.665283 1.68554 0.665283 2.7766V12.4403C0.665283 13.5314 1.49657 14.3627 2.58763 14.3627H12.2513C13.3424 14.3627 14.1737 13.5314 14.1737 12.4403V2.7766C14.1737 1.68554 13.3424 0.854248 12.2513 0.854248ZM7.41949 11.661C9.65357 11.661 11.472 9.89449 11.472 7.76432C11.472 7.40063 11.4201 6.98499 11.3161 6.67326H12.4592V12.1805C12.4592 12.4403 12.2513 12.7001 11.9396 12.7001H2.89937C2.63959 12.7001 2.37981 12.4923 2.37981 12.1805V6.6213H3.57479C3.47088 6.98499 3.41892 7.34868 3.41892 7.71236C3.36697 9.89449 5.18541 11.661 7.41949 11.661ZM7.41949 10.1023C5.96474 10.1023 4.82172 8.9593 4.82172 7.5565C4.82172 6.1537 5.96474 5.01068 7.41949 5.01068C8.87424 5.01068 10.0173 6.1537 10.0173 7.5565C10.0173 9.01125 8.87424 10.1023 7.41949 10.1023ZM12.4072 4.54308C12.4072 4.85482 12.1474 5.11459 11.8357 5.11459H10.3809C10.0692 5.11459 9.80944 4.85482 9.80944 4.54308V3.14029C9.80944 2.82855 10.0692 2.56878 10.3809 2.56878H11.8357C12.1474 2.56878 12.4072 2.82855 12.4072 3.14029V4.54308Z" fill="white"/>
</svg>
