<svg width="55" height="28" viewBox="0 0 55 28" fill="none" xmlns="http://www.w3.org/2000/svg">
<path d="M0.660315 27.2159H5.15615V8.14925H0.660315V27.2159ZM2.90823 5.65759C3.23286 5.6648 3.55565 5.60708 3.85767 5.48782C4.15968 5.36856 4.43482 5.19016 4.66693 4.9631C4.89904 4.73603 5.08344 4.46488 5.20931 4.16556C5.33518 3.86624 5.39998 3.54479 5.3999 3.22009C5.3999 1.86592 4.31657 0.782584 2.90823 0.782584C2.58361 0.775369 2.26081 0.833086 1.9588 0.952347C1.65679 1.07161 1.38165 1.25001 1.14954 1.47708C0.917424 1.70414 0.73302 1.97529 0.607151 2.27461C0.481282 2.57393 0.416485 2.89538 0.416565 3.22009C0.416565 4.57425 1.4999 5.65759 2.90823 5.65759ZM20.052 0.836751C12.4957 0.836751 7.72906 5.98259 7.72906 14.2159C7.72906 22.5034 12.4957 27.6493 20.052 27.6493C27.6082 27.6493 32.3749 22.5034 32.3749 14.2159C32.3749 5.98259 27.6082 0.836751 20.052 0.836751ZM20.052 4.73675C24.6832 4.73675 27.6353 8.44717 27.6353 14.2159C27.6353 20.0388 24.6832 23.6951 20.052 23.6951C15.4207 23.6951 12.4957 20.0388 12.4957 14.2159C12.4957 8.44717 15.4207 4.73675 20.052 4.73675ZM34.2707 19.9305C34.4603 24.6972 38.3332 27.6493 44.3457 27.6493C50.6291 27.6493 54.5832 24.5618 54.5832 19.6326C54.5832 15.7597 52.3624 13.593 47.0812 12.3743L44.102 11.6972C40.9061 10.9388 39.6061 9.93675 39.6061 8.20342C39.6061 6.09092 41.5832 4.60133 44.5082 4.60133C47.4874 4.60133 49.5187 6.09092 49.7353 8.50134H54.1499C54.0416 3.92425 50.277 0.836751 44.5353 0.836751C38.902 0.836751 34.8937 3.95133 34.8937 8.5555C34.8937 12.2659 37.1416 14.568 41.9353 15.6513L45.2937 16.4368C48.5707 17.2222 49.8978 18.2784 49.8978 20.1743C49.8978 22.3409 47.7311 23.8847 44.5895 23.8847C41.4478 23.8847 39.0374 22.3409 38.7666 19.9305H34.2707Z" fill="white"/>
</svg>
