<?xml version="1.0" encoding="UTF-8"?>
<svg width="34px" height="27px" viewBox="0 0 34 27" version="1.1" xmlns="http://www.w3.org/2000/svg" xmlns:xlink="http://www.w3.org/1999/xlink">
    <title>responsive-design</title>
    <g id="Page-1" stroke="none" stroke-width="1" fill="none" fill-rule="evenodd">
        <g id="responsive-design" fill="#000000" fill-rule="nonzero">
            <path d="M31.8459,15.0695 L29.4178,15.0695 L29.4178,11.589 C29.4178,10.6478 28.7418,9.862 27.8499,9.6905 L27.8499,2.9533 C27.8499,1.67333 26.8085,0.63196 25.5284,0.63196 L17.2151,0.63196 C16.8592,0.63196 16.5706,0.92051 16.5706,1.27649 C16.5706,1.63246 16.8592,1.92102 17.2151,1.92102 L25.5284,1.92102 C26.0977,1.92102 26.5608,2.38412 26.5608,2.9533 L26.5608,9.6554 L18.2033,9.6554 C17.1372,9.6554 16.2698,10.5228 16.2698,11.589 L16.2698,15.6642 L2.0686,15.6642 L2.0686,2.9533 C2.0686,2.38412 2.5317,1.92102 3.10095,1.92102 L11.4143,1.92102 C11.7702,1.92102 12.0588,1.63246 12.0588,1.27649 C12.0588,0.92051 11.7702,0.63196 11.4143,0.63196 L3.10095,0.63196 C1.82091,0.63196 0.779541,1.67333 0.779541,2.9533 L0.779541,17.7303 C0.779541,19.0103 1.82091,20.0517 3.10095,20.0517 L11.05,20.0517 L11.05,22.3761 C11.05,23.6451 10.4085,24.8056 9.33395,25.4807 C9.09071,25.6335 8.97798,25.9288 9.05745,26.2048 C9.13692,26.4809 9.38951,26.671 9.67678,26.671 L31.8459,26.671 C32.9121,26.671 33.7795,25.8035 33.7795,24.7374 L33.7795,17.0031 C33.7795,15.9369 32.9121,15.0695 31.8459,15.0695 Z M18.2033,10.9445 L27.4842,10.9445 C27.8396,10.9445 28.1287,11.2336 28.1287,11.589 L28.1287,15.0695 L27.2053,15.0695 C26.1391,15.0695 25.2717,15.9369 25.2717,17.0031 L25.2717,24.7374 C25.2717,24.9634 25.311,25.1802 25.3826,25.382 L18.2033,25.382 C17.848,25.382 17.5588,25.0928 17.5588,24.7374 L17.5588,11.589 C17.5588,11.2336 17.848,10.9445 18.2033,10.9445 Z M2.0686,17.7303 L2.0686,16.9532 L16.2698,16.9532 L16.2698,18.7626 L11.6945,18.7626 L3.10095,18.7626 C2.5317,18.7627 2.0686,18.2996 2.0686,17.7303 Z M12.339,22.3761 L12.339,20.0517 L16.2698,20.0517 L16.2698,24.7374 C16.2698,24.9634 16.3091,25.1802 16.3806,25.382 L11.3274,25.382 C11.9765,24.5332 12.339,23.4853 12.339,22.3761 Z M32.4905,24.7374 C32.4905,25.0928 32.2013,25.382 31.8459,25.382 L27.2053,25.382 C26.8499,25.382 26.5608,25.0928 26.5608,24.7374 L26.5608,17.0031 C26.5608,16.6477 26.8499,16.3585 27.2053,16.3585 L31.8459,16.3585 C32.2013,16.3585 32.4905,16.6477 32.4905,17.0031 L32.4905,24.7374 Z" id="Shape"></path>
            <path d="M4.51782,4.5387 C4.16191,4.5387 3.87329,4.82725 3.87329,5.18323 L3.87329,12.402 C3.87329,12.758 4.16191,13.0465 4.51782,13.0465 L10.1897,13.0465 C10.5456,13.0465 10.8342,12.758 10.8342,12.402 L10.8342,5.18323 C10.8342,4.82725 10.5456,4.5387 10.1897,4.5387 L4.51782,4.5387 Z M9.54517,11.7574 L5.16235,11.7574 L5.16235,5.82776 L9.54517,5.82776 L9.54517,11.7574 Z" id="Shape"></path>
            <path d="M13.2834,5.82776 L19.7932,5.82776 C20.1491,5.82776 20.4377,5.5392 20.4377,5.18323 C20.4377,4.82725 20.1491,4.5387 19.7932,4.5387 L13.2834,4.5387 C12.9275,4.5387 12.6389,4.82725 12.6389,5.18323 C12.6389,5.5392 12.9275,5.82776 13.2834,5.82776 Z" id="Path"></path>
            <path d="M13.2834,12.0152 C13.453,12.0152 13.6192,11.9468 13.7391,11.827 C13.8589,11.7064 13.928,11.5408 13.928,11.3706 C13.928,11.2011 13.859,11.0348 13.7391,10.915 C13.6192,10.7951 13.453,10.7261 13.2834,10.7261 C13.1139,10.7261 12.9476,10.7951 12.8278,10.915 C12.7079,11.0348 12.6389,11.2011 12.6389,11.3706 C12.6389,11.5401 12.7078,11.7064 12.8278,11.827 C12.9476,11.9468 13.1139,12.0152 13.2834,12.0152 Z" id="Path"></path>
            <path d="M13.2834,8.9215 L15.7004,8.9215 C16.0563,8.9215 16.345,8.633 16.345,8.277 C16.345,7.921 16.0563,7.6324 15.7004,7.6324 L13.2834,7.6324 C12.9275,7.6324 12.6389,7.921 12.6389,8.277 C12.6389,8.633 12.9275,8.9215 13.2834,8.9215 Z" id="Path"></path>
            <path d="M29.5256,22.8038 C29.3561,22.8038 29.1898,22.8727 29.07,22.9927 C28.9501,23.1126 28.8811,23.2789 28.8811,23.4484 C28.8811,23.6179 28.95,23.7842 29.07,23.904 C29.1898,24.0239 29.3561,24.0929 29.5256,24.0929 C29.6951,24.0929 29.8614,24.0239 29.9813,23.904 C30.1012,23.7842 30.1702,23.6179 30.1702,23.4484 C30.1702,23.2789 30.1012,23.1126 29.9813,22.9927 C29.8614,22.8727 29.6951,22.8038 29.5256,22.8038 Z" id="Path"></path>
            <path d="M22.8452,24.0929 C23.0147,24.0929 23.181,24.0239 23.3008,23.904 C23.4207,23.7842 23.4897,23.6179 23.4897,23.4484 C23.4897,23.2789 23.4208,23.1126 23.3008,22.9927 C23.181,22.8728 23.0147,22.8038 22.8452,22.8038 C22.6757,22.8038 22.5094,22.8727 22.3895,22.9927 C22.2696,23.1126 22.2007,23.2789 22.2007,23.4484 C22.2007,23.6179 22.2696,23.7842 22.3895,23.904 C22.5094,24.0239 22.6757,24.0929 22.8452,24.0929 Z" id="Path"></path>
            <path d="M14.3147,1.92102 C14.4842,1.92102 14.6505,1.85206 14.7703,1.73217 C14.8903,1.61229 14.9592,1.446 14.9592,1.27649 C14.9592,1.10698 14.8903,0.94069 14.7703,0.82081 C14.6505,0.70092 14.4842,0.63196 14.3147,0.63196 C14.1452,0.63196 13.9789,0.70092 13.859,0.82081 C13.7391,0.94069 13.6702,1.10698 13.6702,1.27649 C13.6702,1.446 13.7391,1.61229 13.859,1.73217 C13.979,1.85206 14.1452,1.92102 14.3147,1.92102 Z" id="Path"></path>
        </g>
    </g>
</svg>