<?xml version="1.0" encoding="UTF-8"?>
<svg width="23px" height="31px" viewBox="0 0 23 31" version="1.1" xmlns="http://www.w3.org/2000/svg" xmlns:xlink="http://www.w3.org/1999/xlink">
    <title>sim-card</title>
    <g id="Page-1" stroke="none" stroke-width="1" fill="none" fill-rule="evenodd">
        <g id="sim-card" fill="#000000" fill-rule="nonzero">
            <path d="M22.1152,5.42096 L18.2529,1.55853 C17.8827,1.18848 17.3903,0.984497 16.8668,0.984497 L2.74042,0.984497 C1.65973,0.984497 0.78027,1.86377 0.78027,2.94464 L0.78027,3.75195 C0.78027,4.0788 1.04523,4.34357 1.37207,4.34357 C1.69855,4.34357 1.9635,4.0788 1.9635,3.75195 L1.9635,2.94464 C1.9635,2.51617 2.31195,2.16754 2.74042,2.16754 L16.8668,2.16754 C17.0743,2.16754 17.2695,2.24866 17.4161,2.39532 L21.2784,6.25757 C21.425,6.40424 21.506,6.59943 21.506,6.80707 L21.506,29.0244 C21.506,29.4528 21.1575,29.8015 20.7291,29.8015 L2.74042,29.8015 C2.31195,29.8015 1.9635,29.4528 1.9635,29.0244 L1.9635,8.47498 C1.9635,8.14795 1.69855,7.88318 1.37207,7.88318 C1.04523,7.88318 0.78027,8.14795 0.78027,8.47498 L0.78027,29.0244 C0.78027,30.1052 1.65973,30.984497 2.74042,30.984497 L20.7291,30.984497 C21.8097,30.984497 22.6892,30.1052 22.6892,29.0244 L22.6892,6.80707 C22.6892,6.28339 22.4852,5.79102 22.1152,5.42096 Z" id="Path"></path>
            <path d="M19.2921,11.5166 C19.2921,11.19 19.0272,10.925 18.7003,10.925 L5.01593,10.925 C4.68945,10.925 4.42432,11.19 4.42432,11.5166 L4.42432,14.1103 C4.42432,14.4372 4.68945,14.7019 5.01593,14.7019 L18.7003,14.7019 C19.0272,14.7019 19.2921,14.4372 19.2921,14.1103 L19.2921,11.5166 Z M18.1087,13.5189 L5.60773,13.5189 L5.60773,12.1082 L18.1087,12.1082 L18.1087,13.5189 Z" id="Shape"></path>
            <path d="M4.42432,27.4862 C4.42432,27.8128 4.68945,28.0776 5.01593,28.0776 L18.7003,28.0776 C19.0272,28.0776 19.2921,27.8128 19.2921,27.4862 L19.2921,24.8923 C19.2921,24.5656 19.0272,24.3009 18.7003,24.3009 L14.2296,24.3009 C13.903,24.3009 13.6382,24.5656 13.6382,24.8923 C13.6382,25.219 13.903,25.4839 14.2296,25.4839 L18.1087,25.4839 L18.1087,26.8944 L5.60773,26.8944 L5.60773,25.4839 L9.6154,25.4839 C9.942,25.4839 10.2068,25.219 10.2068,24.8923 C10.2068,24.5656 9.942,24.3009 9.6154,24.3009 L5.01593,24.3009 C4.68945,24.3009 4.42432,24.5656 4.42432,24.8923 L4.42432,27.4862 Z" id="Path"></path>
            <path d="M19.2911,16.067 C19.2911,15.7405 19.0262,15.4756 18.6993,15.4756 L16.2106,15.4756 C15.8839,15.4756 15.6191,15.7405 15.6191,16.067 L15.6191,18.661 C15.6191,18.9875 15.8839,19.2525 16.2106,19.2525 L18.6993,19.2525 C19.0262,19.2525 19.2911,18.9875 19.2911,18.661 L19.2911,16.067 Z M18.1077,18.0692 L16.8022,18.0692 L16.8022,16.6586 L18.1077,16.6586 L18.1077,18.0692 Z" id="Shape"></path>
            <path d="M18.6993,19.75 L16.2106,19.75 C15.8839,19.75 15.6191,20.0147 15.6191,20.3416 L15.6191,22.9353 C15.6191,23.2621 15.8839,23.5269 16.2106,23.5269 L18.6993,23.5269 C19.0262,23.5269 19.2911,23.2621 19.2911,22.9353 L19.2911,20.3416 C19.2911,20.0147 19.0262,19.75 18.6993,19.75 Z M18.1077,22.3438 L16.8022,22.3438 L16.8022,20.9332 L18.1077,20.9332 L18.1077,22.3438 Z" id="Shape"></path>
            <path d="M4.42432,18.661 C4.42432,18.9875 4.68945,19.2525 5.01593,19.2525 L7.5049,19.2525 C7.8317,19.2525 8.0965,18.9875 8.0965,18.661 L8.0965,16.067 C8.0965,15.7405 7.8317,15.4756 7.5049,15.4756 L5.01593,15.4756 C4.68945,15.4756 4.42432,15.7405 4.42432,16.067 L4.42432,18.661 Z M5.60773,16.6586 L6.9133,16.6586 L6.9133,18.0692 L5.60773,18.0692 L5.60773,16.6586 Z" id="Shape"></path>
            <path d="M4.42432,22.9353 C4.42432,23.2621 4.68945,23.5269 5.01593,23.5269 L7.5049,23.5269 C7.8317,23.5269 8.0965,23.2621 8.0965,22.9353 L8.0965,20.3416 C8.0965,20.0147 7.8317,19.75 7.5049,19.75 L5.01593,19.75 C4.68945,19.75 4.42432,20.0147 4.42432,20.3416 L4.42432,22.9353 Z M5.60773,20.9332 L6.9133,20.9332 L6.9133,22.3438 L5.60773,22.3438 L5.60773,20.9332 Z" id="Shape"></path>
            <path d="M14.8802,22.9351 L14.8802,16.067 C14.8802,15.7405 14.6152,15.4756 14.2886,15.4756 L9.4271,15.4756 C9.1005,15.4756 8.8357,15.7405 8.8357,16.067 L8.8357,22.9351 C8.8357,23.2619 9.1005,23.5267 9.4271,23.5267 L14.2886,23.5267 C14.6152,23.5267 14.8802,23.2619 14.8802,22.9351 Z M13.697,22.3437 L10.0187,22.3437 L10.0187,16.6586 L13.697,16.6586 L13.697,22.3437 Z" id="Shape"></path>
            <path d="M11.685,24.3393 C11.3823,24.462 11.2362,24.8068 11.3589,25.1096 L11.3625,25.1186 C11.4557,25.3487 11.6773,25.4883 11.9109,25.4883 C11.9849,25.4883 12.0602,25.4744 12.133,25.4451 C12.4357,25.3224 12.5818,24.9774 12.4591,24.6746 L12.4555,24.6654 C12.3328,24.3625 11.9878,24.2166 11.685,24.3393 Z" id="Path"></path>
            <path d="M0.82422,6.34038 C0.91724,6.57054 1.13879,6.71007 1.37262,6.71007 C1.44678,6.71007 1.52185,6.69615 1.59454,6.66649 C1.8974,6.54381 2.04334,6.19902 1.92066,5.89616 L1.91699,5.88719 C1.79431,5.58434 1.44952,5.43822 1.14667,5.56108 C0.84381,5.68376 0.69788,6.02873 0.82056,6.33141 L0.82422,6.34038 Z" id="Path"></path>
        </g>
    </g>
</svg>