<?xml version="1.0" encoding="UTF-8"?>
<svg width="30px" height="34px" viewBox="0 0 30 34" version="1.1" xmlns="http://www.w3.org/2000/svg" xmlns:xlink="http://www.w3.org/1999/xlink">
    <title>technical-support</title>
    <g id="Page-1" stroke="none" stroke-width="1" fill="none" fill-rule="evenodd">
        <g id="technical-support" fill="#000000" fill-rule="nonzero">
            <path d="M28.119,8.37455 L27.7946,8.37455 C27.6029,7.68008 27.335,7.01378 26.9945,6.38383 L27.2251,6.14601 C27.4889,5.87409 27.6341,5.51142 27.6341,5.12477 C27.6341,4.73813 27.4889,4.37552 27.2249,4.10328 L25.6887,2.52093 C25.4249,2.24721 25.0728,2.09652 24.6972,2.09652 C24.3216,2.09652 23.9694,2.24721 23.7069,2.51958 L23.4766,2.75708 C22.8653,2.40486 22.219,2.1281 21.546,1.93043 L21.546,1.59599 C21.546,0.799369 20.9176,0.151245 20.1451,0.151245 L17.9731,0.151245 C17.2007,0.151245 16.5722,0.799369 16.5722,1.59599 L16.5722,1.93043 C15.8993,2.12804 15.2526,2.40486 14.64,2.75734 L14.4108,2.52093 C14.1469,2.24721 13.7947,2.09652 13.4192,2.09658 C13.0436,2.09658 12.6915,2.24734 12.429,2.51964 L10.8931,4.1036 C10.6293,4.37552 10.4841,4.73819 10.4841,5.12484 C10.4841,5.51148 10.6293,5.87409 10.8931,6.14601 L11.1236,6.38377 C10.7816,7.01565 10.5136,7.68208 10.323,8.37455 L9.9974,8.37455 C9.2249,8.37455 8.5964,9.02267 8.5964,9.81929 L8.5964,12.061 C8.5964,12.8577 9.2249,13.5058 9.9974,13.5058 L10.323,13.5058 C10.5136,14.1982 10.7816,14.8646 11.1236,15.4966 L10.8931,15.7343 C10.6293,16.0062 10.4841,16.3689 10.4841,16.7556 C10.4841,17.1421 10.6293,17.5048 10.893,17.7767 L12.4277,19.3594 C12.6915,19.6331 13.0436,19.7838 13.4191,19.7838 L13.4192,19.7838 C13.7947,19.7838 14.1469,19.6331 14.4095,19.3608 L14.64,19.123 C15.2531,19.4758 15.8999,19.7522 16.5721,19.9488 L16.5721,20.2844 C16.5721,21.081 17.2006,21.7292 17.9731,21.7292 L20.145,21.7292 C20.9175,21.7292 21.546,21.081 21.546,20.2844 L21.546,19.9488 C22.2184,19.7522 22.8646,19.4759 23.4766,19.1232 L23.7056,19.3594 C23.9694,19.6331 24.3215,19.7838 24.6971,19.7838 C25.0727,19.7838 25.4249,19.6331 25.6871,19.361 L27.2251,17.7767 C27.4888,17.5047 27.634,17.1421 27.634,16.7555 C27.634,16.3689 27.4888,16.0062 27.2251,15.7343 L26.9945,15.4965 C27.335,14.8666 27.6028,14.2003 27.7946,13.5058 L28.1189,13.5058 C28.8914,13.5058 29.5199,12.8577 29.5199,12.061 L29.5199,9.81929 C29.5199,9.02267 28.8915,8.37455 28.119,8.37455 Z M20.2961,20.2843 C20.2961,20.3688 20.227,20.4401 20.1451,20.4401 L17.9731,20.4401 C17.8913,20.4401 17.8221,20.3688 17.8221,20.2843 L17.8221,19.4476 L17.8221,15.3844 C17.8221,15.1148 17.6595,14.8738 17.4145,14.7801 C15.7351,14.1377 14.6067,12.4709 14.6067,10.6323 C14.6067,9.17529 15.3103,7.80943 16.4884,6.97898 C16.5412,6.94172 16.588,6.9113 16.6289,6.8863 C16.6266,6.97015 16.6209,7.04981 16.6178,7.09138 C16.6131,7.1568 16.6094,7.20843 16.6094,7.25966 L16.6094,10.3016 C16.6094,11.6978 17.6673,12.8638 19.0177,12.9562 C19.0452,12.9581 19.0729,12.9581 19.1004,12.9562 C20.4499,12.8639 21.507,11.6979 21.507,10.3016 L21.507,7.25966 C21.507,7.20868 21.5033,7.15738 21.4987,7.09235 C21.4957,7.05058 21.4899,6.97047 21.4877,6.8863 C21.5285,6.91117 21.575,6.94153 21.6277,6.97872 C22.8061,7.80937 23.5096,9.17523 23.5096,10.6323 C23.5096,12.4706 22.3819,14.1375 20.7034,14.7801 C20.4585,14.8738 20.296,15.1148 20.296,15.3843 L20.296,19.4475 L20.296,20.2843 L20.2961,20.2843 Z M28.2701,12.061 C28.2701,12.144 28.1994,12.2168 28.119,12.2168 L27.3094,12.2168 C27.0174,12.2168 26.7643,12.4253 26.6999,12.719 C26.5019,13.6208 26.1591,14.4737 25.6809,15.2537 C25.5248,15.5084 25.5607,15.8407 25.7673,16.0538 L26.3414,16.6458 C26.3786,16.6842 26.3842,16.731 26.3842,16.7555 C26.3842,16.7799 26.3786,16.8268 26.3415,16.8649 L24.8023,18.4506 C24.7671,18.487 24.7257,18.4947 24.6972,18.4947 C24.6687,18.4947 24.6273,18.487 24.5908,18.4492 L24.0168,17.8572 C23.8099,17.6438 23.4873,17.6071 23.2403,17.7685 C22.7068,18.1171 22.139,18.3937 21.546,18.5982 L21.546,15.813 C23.485,14.8825 24.7597,12.8546 24.7597,10.6322 C24.7597,8.74914 23.8525,6.98549 22.3332,5.9145 C22.1005,5.75047 21.3927,5.25142 20.7736,5.61886 C20.1658,5.97979 20.2263,6.82584 20.2521,7.18716 C20.2544,7.21854 20.2566,7.2449 20.2571,7.25966 L20.2571,10.3016 C20.2571,11.0071 19.7342,11.5985 19.0591,11.6665 C18.3831,11.5985 17.8594,11.007 17.8594,10.3016 L17.8593,7.2643 C17.8599,7.2449 17.8621,7.21854 17.8644,7.18703 C17.8905,6.82591 17.9515,5.9803 17.3442,5.61918 C16.7254,5.2511 16.0165,5.75034 15.7833,5.9145 C14.2639,6.98555 13.3568,8.7492 13.3568,10.6323 C13.3568,12.855 14.6322,14.883 16.5722,15.8133 L16.5722,18.5982 C15.9791,18.3938 15.4106,18.117 14.8755,17.7682 C14.7727,17.7012 14.6569,17.6685 14.5417,17.6685 C14.3803,17.6685 14.2202,17.7329 14.0996,17.8573 L13.5244,18.4506 C13.4892,18.4871 13.4478,18.4948 13.4193,18.4948 C13.3908,18.4948 13.3494,18.4871 13.3129,18.4493 L11.777,16.8653 C11.7397,16.8268 11.7341,16.78 11.7341,16.7556 C11.7341,16.7311 11.7397,16.6843 11.777,16.6458 L12.351,16.0538 C12.5576,15.8407 12.5935,15.5084 12.4373,15.2537 C11.9567,14.4695 11.614,13.6171 11.4187,12.7201 C11.3547,12.4258 11.1013,12.2167 10.8089,12.2167 L9.9975,12.2167 C9.9171,12.2167 9.8465,12.1439 9.8465,12.061 L9.8465,9.81923 C9.8465,9.73479 9.9157,9.66351 9.9975,9.66351 L10.8089,9.66351 C11.1013,9.66351 11.3546,9.45437 11.4187,9.16014 C11.614,8.26311 11.9567,7.41061 12.4373,6.62649 C12.5935,6.37178 12.5576,6.03947 12.351,5.82639 L11.7769,5.2344 C11.7397,5.19599 11.7341,5.1492 11.7341,5.12471 C11.7341,5.10022 11.7397,5.05342 11.777,5.01495 L13.3143,3.42957 C13.3494,3.39309 13.3908,3.38542 13.4193,3.38542 C13.4478,3.38542 13.4892,3.39309 13.5257,3.43092 L14.0997,4.02291 C14.3064,4.23605 14.6287,4.27298 14.8756,4.11198 C15.635,3.61687 16.4625,3.26271 17.335,3.05949 C17.62,2.9931 17.8223,2.73201 17.8223,2.43083 L17.8223,1.59599 C17.8223,1.51156 17.8914,1.44027 17.9733,1.44027 L20.1452,1.44027 C20.2271,1.44027 20.2962,1.51156 20.2962,1.59599 L20.2962,2.43096 C20.2962,2.7322 20.4985,2.99323 20.7834,3.05962 C21.6567,3.26303 22.4833,3.61699 23.2404,4.11179 C23.4875,4.27318 23.81,4.23644 24.0169,4.0231 L24.5922,3.42976 C24.6274,3.39328 24.6688,3.38561 24.6973,3.38561 C24.7258,3.38561 24.7672,3.39328 24.8039,3.43137 L26.3415,5.01514 C26.3787,5.05355 26.3843,5.10035 26.3843,5.12484 C26.3843,5.14933 26.3787,5.19612 26.3414,5.2346 L25.7674,5.82659 C25.5608,6.03966 25.5249,6.37197 25.6811,6.62669 C26.1592,7.40674 26.502,8.2595 26.7,9.16143 C26.7644,9.45514 27.0175,9.66364 27.3095,9.66364 L28.1191,9.66364 C28.201,9.66364 28.2701,9.73492 28.2701,9.81935 L28.2701,12.061 L28.2701,12.061 Z" id="Shape"></path>
            <path d="M22.7006,28.5305 C22.4566,28.7822 22.4566,29.1903 22.7006,29.4421 C22.8227,29.5679 22.9826,29.6309 23.1426,29.6309 C23.3025,29.6309 23.4624,29.5679 23.5845,29.4421 L23.5862,29.4403 C23.8303,29.1886 23.8294,28.7814 23.5853,28.5297 C23.3412,28.278 22.9447,28.279 22.7006,28.5305 Z" id="Path"></path>
            <path d="M25.5963,22.2872 L20.6345,24.9149 C20.2138,24.4657 19.6245,24.1855 18.9726,24.1855 L15.5729,24.1855 C15.3825,24.1855 15.336,24.1699 15.3329,24.1688 C15.3053,24.1538 15.2182,24.0694 15.1483,24.0016 L15.1173,23.9716 C12.3669,21.3015 10.0435,21.4707 7.40136,22.546 C6.97387,22.7201 6.96562,22.7204 6.53632,22.7393 L5.76759,22.7399 C5.54859,22.0586 4.92536,21.5655 4.19219,21.5655 L1.6925,21.5655 C0.77834,21.5655 0.03467,22.3333 0.03467,23.277 L0.03467,30.0425 C0.03467,30.9851 0.77834,31.7521 1.6925,31.7521 L4.19219,31.7521 C4.92529,31.7521 5.54847,31.2596 5.76752,30.5791 L7.17374,30.5791 C7.29792,30.5791 7.29792,30.5791 7.44236,30.6211 C7.49485,30.6364 7.55873,30.6549 7.64123,30.6778 L14.1094,32.4624 C14.3946,32.5418 14.656,32.6199 14.909,32.6955 C15.7377,32.9431 16.4343,33.1513 17.1604,33.1513 C17.981,33.1513 18.839,32.8853 19.9675,32.1097 C19.973,32.106 19.9784,32.1021 19.9838,32.0982 L21.2186,31.1901 C21.4997,30.9834 21.5651,30.581 21.3646,30.2912 C21.1642,30.0013 20.7738,29.9339 20.493,30.1406 L19.2663,31.0426 C17.6286,32.1659 16.9332,31.9583 15.2568,31.4574 C14.9986,31.3802 14.7316,31.3004 14.4341,31.2175 L7.96534,29.4329 C7.88959,29.4119 7.83016,29.3947 7.78141,29.3805 C7.54541,29.3119 7.45717,29.2902 7.1738,29.2902 L5.85183,29.2902 L5.85183,24.0294 L6.52725,24.0294 C6.53625,24.0294 6.54513,24.0293 6.55413,24.0289 L6.58975,24.0273 C7.11368,24.0042 7.26023,23.9895 7.86034,23.7452 C10.1808,22.8008 11.9721,22.6886 14.2614,24.9111 L14.2923,24.9411 C14.6835,25.3202 14.9089,25.4746 15.573,25.4746 L18.9726,25.4746 C19.3716,25.4746 19.7195,25.7031 19.9009,26.0396 C19.9029,26.0433 19.9051,26.0468 19.9071,26.0506 C19.9881,26.2051 20.0342,26.3818 20.0342,26.5695 C20.0342,27.1722 19.558,27.6625 18.9727,27.6625 L13.463,27.6625 C13.1179,27.6625 12.838,27.951 12.838,28.307 C12.838,28.6629 13.1179,28.9515 13.463,28.9515 L18.9727,28.9515 C20.2473,28.9515 21.2842,27.8829 21.2842,26.5695 C21.2842,26.391 21.2644,26.2172 21.2282,26.0498 L26.1673,23.434 C26.6348,23.1865 27.274,23.2131 27.5914,23.7442 C27.8721,24.2123 27.7177,24.8345 27.2324,25.1913 L25.0658,26.7826 C24.7846,26.9891 24.719,27.3916 24.9192,27.6815 C25.0412,27.8581 25.2335,27.9522 25.4288,27.9522 C25.5543,27.9522 25.6809,27.9134 25.7908,27.8327 L27.9577,26.2412 C28.9868,25.4846 29.2863,24.1196 28.6549,23.0671 C28.0341,22.028 26.7192,21.6927 25.5963,22.2872 Z M4.6018,30.0425 C4.6018,30.2705 4.41424,30.4631 4.19219,30.4631 L1.6925,30.4631 C1.47138,30.4631 1.28464,30.2704 1.28464,30.0425 L1.28464,23.2771 C1.28464,23.0442 1.46763,22.8546 1.6925,22.8546 L4.19219,22.8546 C4.41424,22.8546 4.6018,23.048 4.6018,23.2771 L4.6018,30.0425 Z" id="Shape"></path>
        </g>
    </g>
</svg>