<svg width="16" height="14" viewBox="0 0 16 14" fill="none" xmlns="http://www.w3.org/2000/svg">
<path d="M15.6608 2.15868C15.1046 2.39707 14.4689 2.556 13.8332 2.63546C14.4689 2.23815 15.0251 1.60246 15.2635 0.887312C14.6278 1.28462 13.9921 1.523 13.1975 1.68192C12.6413 1.04623 11.7672 0.648926 10.8931 0.648926C9.145 0.648926 7.7147 2.07923 7.7147 3.82738C7.7147 4.06576 7.7147 4.30414 7.79416 4.54252C5.17194 4.3836 2.7881 3.11222 1.19888 1.20515C0.960495 1.68192 0.801572 2.23815 0.801572 2.79438C0.801572 3.90683 1.3578 4.86037 2.23188 5.4166C1.67565 5.4166 1.19888 5.25768 0.801572 5.01929C0.801572 6.52906 1.91403 7.87989 3.34433 8.11828C3.10595 8.19774 2.78811 8.19774 2.47026 8.19774C2.23188 8.19774 2.07295 8.19774 1.83457 8.11828C2.23188 9.38966 3.4238 10.3432 4.8541 10.3432C3.74164 11.2173 2.3908 11.694 0.881038 11.694C0.642654 11.694 0.404271 11.694 0.0864258 11.6146C1.51673 12.4887 3.18541 13.0449 5.01302 13.0449C10.8932 13.0449 14.0716 8.19774 14.0716 3.9863V3.58899C14.7073 3.35061 15.2635 2.79437 15.6608 2.15868Z" fill="white"/>
</svg>
