<svg width="20" height="21" viewBox="0 0 20 21" fill="none" xmlns="http://www.w3.org/2000/svg">
<path fill-rule="evenodd" clip-rule="evenodd" d="M10.025 20.3203C15.4564 20.3203 19.8595 15.9551 19.8595 10.5703C19.8595 5.18554 15.4564 0.820312 10.025 0.820312C4.5935 0.820312 0.19043 5.18554 0.19043 10.5703C0.19043 15.9551 4.5935 20.3203 10.025 20.3203ZM3.43041 15.6007C2.34845 14.2084 1.705 12.4639 1.705 10.5703C1.705 6.01396 5.43067 2.32031 10.0265 2.32031C14.6224 2.32031 18.348 6.01396 18.348 10.5703C18.348 12.4636 17.7047 14.2079 16.623 15.6002C16.1295 15.1567 15.4987 14.8358 14.6688 14.5397C14.5444 14.4953 14.4169 14.4517 14.2578 14.3986L13.8703 14.27C12.9279 13.9548 12.5944 13.7545 12.5168 13.5011C12.5142 13.4926 12.51 13.4768 12.5041 13.446C12.4706 13.2705 12.4782 13.0785 12.5471 12.9192C12.5878 12.8252 12.6498 12.7416 12.7426 12.6646C13.7878 11.7293 14.3146 10.6751 14.3146 9.23718C14.3146 6.73202 12.3375 4.82031 10.0278 4.82031C7.70213 4.82031 5.74093 6.69944 5.74093 9.23718C5.74093 10.6708 6.25409 11.6942 7.26193 12.6352C7.39161 12.7436 7.45673 12.823 7.50102 12.9063C7.58674 13.0674 7.59771 13.2542 7.56016 13.4261C7.55747 13.4384 7.55524 13.4477 7.55383 13.4535C7.55214 13.4605 7.55166 13.4625 7.55306 13.4588C7.4784 13.7217 7.16918 13.9106 6.29779 14.2057L5.85138 14.3551C5.66518 14.4178 5.51716 14.4691 5.37229 14.5222C4.55534 14.8211 3.92415 15.1513 3.43041 15.6007ZM4.46079 16.7035C5.93517 18.0195 7.88651 18.8203 10.0265 18.8203C12.1666 18.8203 14.1181 18.0194 15.5925 16.7033C15.2624 16.4135 14.805 16.1825 14.1564 15.951C14.0435 15.9108 13.9253 15.8703 13.7754 15.8203L13.3866 15.6913C11.9791 15.2205 11.3455 14.8399 11.0729 13.9489C11.0557 13.8959 11.0358 13.8204 11.0176 13.7253C10.9328 13.2818 10.952 12.8011 11.1566 12.328C11.2897 12.0202 11.4943 11.7441 11.7503 11.5327C12.4713 10.8869 12.8016 10.226 12.8016 9.23718C12.8016 7.56896 11.5103 6.32031 10.0278 6.32031C8.52641 6.32031 7.25393 7.53954 7.25393 9.23718C7.25393 10.225 7.57662 10.8686 8.2631 11.5116C8.50987 11.7142 8.7019 11.9482 8.83926 12.2064C9.11401 12.7228 9.14534 13.2561 9.03891 13.7435C9.01713 13.8433 8.99317 13.9227 8.99309 13.9139C8.75487 14.791 8.13883 15.1673 6.78685 15.6252L6.33752 15.7756C6.1629 15.8343 6.02656 15.8817 5.89618 15.9294C5.25426 16.1643 4.79385 16.4042 4.46079 16.7035Z" fill="white"/>
</svg>
