<svg width="13" height="10" viewBox="0 0 13 10" fill="none" xmlns="http://www.w3.org/2000/svg">
<path fill-rule="evenodd" clip-rule="evenodd" d="M6.3247 2.06876C8.12109 2.06884 9.8488 2.75851 11.1507 3.99522C11.2488 4.09069 11.4055 4.08949 11.502 3.99252L12.4392 3.04751C12.4881 2.99833 12.5153 2.9317 12.5149 2.86238C12.5145 2.79306 12.4865 2.72676 12.437 2.67815C9.01988 -0.593889 3.62897 -0.593889 0.211836 2.67815C0.162337 2.72673 0.134251 2.79301 0.133795 2.86233C0.133338 2.93165 0.160548 2.99829 0.209404 3.04751L1.14683 3.99252C1.24332 4.08964 1.40015 4.09084 1.49813 3.99522C2.80022 2.75842 4.52812 2.06876 6.3247 2.06876ZM6.32814 5.14323C7.31514 5.14317 8.26692 5.50973 8.99854 6.17167C9.0975 6.26561 9.25338 6.26357 9.34984 6.16708L10.2859 5.22207C10.3352 5.17251 10.3626 5.10526 10.3619 5.03539C10.3611 4.96551 10.3324 4.89884 10.2821 4.85028C8.0542 2.77961 4.60396 2.77961 2.37603 4.85028C2.3257 4.89884 2.29699 4.96555 2.29633 5.03544C2.29567 5.10534 2.32312 5.17258 2.37252 5.22207L3.30832 6.16708C3.40478 6.26357 3.56066 6.26561 3.65962 6.17167C4.39076 5.51016 5.34178 5.14364 6.32814 5.14323ZM8.20104 7.21168C8.20248 7.28175 8.17491 7.34931 8.12484 7.3984L6.50563 9.0311C6.45816 9.07908 6.39345 9.10608 6.32593 9.10608C6.2584 9.10608 6.19369 9.07908 6.14622 9.0311L4.52674 7.3984C4.47671 7.34927 4.44919 7.2817 4.45067 7.21163C4.45216 7.14155 4.48251 7.0752 4.53458 7.02823C5.56867 6.15433 7.08319 6.15433 8.11728 7.02823C8.1693 7.07524 8.19961 7.14161 8.20104 7.21168Z" fill="white"/>
</svg>
