<svg width="15" height="11" viewBox="0 0 15 11" fill="none" xmlns="http://www.w3.org/2000/svg">
<path d="M14.7311 4.34739C14.7311 4.03918 14.6797 3.6796 14.6797 3.26865C14.6284 2.8577 14.577 2.44674 14.5256 2.08716C14.4229 1.67621 14.2688 1.368 13.9605 1.11116C13.7037 0.854312 13.3441 0.700201 12.9845 0.648832C11.8031 0.494725 10.0565 0.443359 7.69355 0.443359C5.33058 0.443359 3.53266 0.494725 2.40254 0.648832C2.04296 0.700201 1.68338 0.854312 1.42654 1.11116C1.16969 1.368 0.964216 1.67621 0.861478 2.08716C0.75874 2.44674 0.707378 2.80633 0.707378 3.26865C0.656009 3.6796 0.656006 4.03918 0.656006 4.34739C0.656006 4.6556 0.656006 5.01519 0.656006 5.52888C0.656006 6.04256 0.656006 6.45352 0.656006 6.71036C0.656006 7.01858 0.707378 7.37816 0.707378 7.78911C0.758747 8.20006 0.810109 8.61101 0.861478 8.97059C0.964216 9.38154 1.11833 9.68976 1.42654 9.9466C1.68338 10.2034 2.04296 10.3576 2.40254 10.4089C3.58403 10.563 5.33058 10.6144 7.69355 10.6144C10.0565 10.6144 11.8544 10.563 12.9845 10.4089C13.3441 10.3576 13.7037 10.2034 13.9605 9.9466C14.2174 9.68976 14.4229 9.38154 14.5256 8.97059C14.6283 8.61101 14.6797 8.25143 14.6797 7.78911C14.7311 7.37816 14.7311 7.01858 14.7311 6.71036C14.7311 6.40215 14.7311 6.04256 14.7311 5.52888C14.7311 5.01519 14.7311 4.60423 14.7311 4.34739ZM10.4161 5.93983L6.35796 8.4569C6.30659 8.50827 6.20385 8.55964 6.10111 8.55964C5.99837 8.55964 5.947 8.55964 5.84427 8.50827C5.69016 8.40554 5.58742 8.25143 5.58742 8.04596V2.96043C5.58742 2.75496 5.69016 2.60085 5.84427 2.49811C5.99837 2.39538 6.20385 2.39538 6.35796 2.49811L10.4161 5.01519C10.5702 5.11792 10.6729 5.27203 10.6729 5.42614C10.6729 5.58025 10.5702 5.83709 10.4161 5.93983Z" fill="white"/>
</svg>
