<svg width="204" height="296" viewBox="0 0 204 296" fill="none" xmlns="http://www.w3.org/2000/svg">
<g opacity="0.3">
<path d="M-25.9435 4.58233C-25.9435 6.7417 -27.694 8.49222 -29.8535 8.49222C-32.013 8.49222 -33.7636 6.7417 -33.7636 4.58233C-33.7636 2.42296 -32.013 0.67244 -29.8535 0.67244C-27.694 0.67244 -25.9435 2.42296 -25.9435 4.58233Z" fill="#DFC6FF"/>
<path d="M31.4036 4.58225C31.4036 6.74163 29.6531 8.49214 27.4936 8.49214C25.3341 8.49214 23.5835 6.74163 23.5835 4.58225C23.5835 2.42288 25.3341 0.672363 27.4936 0.672363C29.6531 0.672363 31.4036 2.42288 31.4036 4.58225Z" fill="#DFC6FF"/>
<path d="M88.7514 4.58225C88.7514 6.74163 87.0008 8.49214 84.8413 8.49214C82.6818 8.49214 80.9313 6.74163 80.9313 4.58225C80.9313 2.42288 82.6818 0.672363 84.8413 0.672363C87.0008 0.672363 88.7514 2.42288 88.7514 4.58225Z" fill="#DFC6FF"/>
<path d="M146.099 4.58225C146.099 6.74163 144.348 8.49214 142.189 8.49214C140.029 8.49214 138.278 6.74163 138.278 4.58225C138.278 2.42288 140.029 0.672363 142.189 0.672363C144.348 0.672363 146.099 2.42288 146.099 4.58225Z" fill="#DFC6FF"/>
<path d="M203.446 4.58225C203.446 6.74163 201.696 8.49214 199.536 8.49214C197.377 8.49214 195.626 6.74163 195.626 4.58225C195.626 2.42288 197.377 0.672363 199.536 0.672363C201.696 0.672363 203.446 2.42288 203.446 4.58225Z" fill="#DFC6FF"/>
<path d="M-25.9436 61.9273C-25.9436 64.0867 -27.6942 65.8372 -29.8536 65.8372C-32.0131 65.8372 -33.7637 64.0867 -33.7637 61.9273C-33.7637 59.768 -32.0131 58.0174 -29.8536 58.0174C-27.6942 58.0174 -25.9436 59.768 -25.9436 61.9273Z" fill="#DFC6FF"/>
<path d="M31.4036 61.9273C31.4036 64.0867 29.6531 65.8372 27.4936 65.8372C25.3341 65.8372 23.5835 64.0867 23.5835 61.9273C23.5835 59.768 25.3341 58.0174 27.4936 58.0174C29.6531 58.0174 31.4036 59.768 31.4036 61.9273Z" fill="#DFC6FF"/>
<path d="M88.7514 61.9273C88.7514 64.0867 87.0008 65.8372 84.8413 65.8372C82.6818 65.8372 80.9313 64.0867 80.9313 61.9273C80.9313 59.768 82.6818 58.0174 84.8413 58.0174C87.0008 58.0174 88.7514 59.768 88.7514 61.9273Z" fill="#DFC6FF"/>
<path d="M146.099 61.9273C146.099 64.0867 144.348 65.8372 142.189 65.8372C140.029 65.8372 138.278 64.0867 138.278 61.9273C138.278 59.768 140.029 58.0174 142.189 58.0174C144.348 58.0174 146.099 59.768 146.099 61.9273Z" fill="#DFC6FF"/>
<path d="M203.446 61.9273C203.446 64.0867 201.696 65.8372 199.536 65.8372C197.377 65.8372 195.626 64.0867 195.626 61.9273C195.626 59.768 197.377 58.0174 199.536 58.0174C201.696 58.0174 203.446 59.768 203.446 61.9273Z" fill="#DFC6FF"/>
<path d="M-25.9436 119.272C-25.9436 121.432 -27.6942 123.182 -29.8536 123.182C-32.0131 123.182 -33.7637 121.432 -33.7637 119.272C-33.7637 117.113 -32.0131 115.363 -29.8536 115.363C-27.6942 115.363 -25.9436 117.113 -25.9436 119.272Z" fill="#DFC6FF"/>
<path d="M31.4036 119.272C31.4036 121.432 29.6531 123.182 27.4936 123.182C25.3341 123.182 23.5835 121.432 23.5835 119.272C23.5835 117.113 25.3341 115.363 27.4936 115.363C29.6531 115.363 31.4036 117.113 31.4036 119.272Z" fill="#DFC6FF"/>
<path d="M88.7514 119.272C88.7514 121.432 87.0008 123.182 84.8413 123.182C82.6818 123.182 80.9313 121.432 80.9313 119.272C80.9313 117.113 82.6818 115.363 84.8413 115.363C87.0008 115.363 88.7514 117.113 88.7514 119.272Z" fill="#DFC6FF"/>
<path d="M146.099 119.272C146.099 121.432 144.348 123.182 142.189 123.182C140.029 123.182 138.278 121.432 138.278 119.272C138.278 117.113 140.029 115.363 142.189 115.363C144.348 115.363 146.099 117.113 146.099 119.272Z" fill="#DFC6FF"/>
<path d="M203.446 119.272C203.446 121.432 201.696 123.182 199.536 123.182C197.377 123.182 195.626 121.432 195.626 119.272C195.626 117.113 197.377 115.363 199.536 115.363C201.696 115.363 203.446 117.113 203.446 119.272Z" fill="#DFC6FF"/>
<path d="M-25.9436 176.617C-25.9436 178.777 -27.6942 180.527 -29.8536 180.527C-32.0131 180.527 -33.7637 178.777 -33.7637 176.617C-33.7637 174.458 -32.0131 172.708 -29.8536 172.708C-27.6942 172.708 -25.9436 174.458 -25.9436 176.617Z" fill="#DFC6FF"/>
<path d="M31.4036 176.617C31.4036 178.777 29.6531 180.527 27.4936 180.527C25.3341 180.527 23.5835 178.777 23.5835 176.617C23.5835 174.458 25.3341 172.708 27.4936 172.708C29.6531 172.708 31.4036 174.458 31.4036 176.617Z" fill="#DFC6FF"/>
<path d="M88.7514 176.617C88.7514 178.777 87.0008 180.527 84.8413 180.527C82.6818 180.527 80.9313 178.777 80.9313 176.617C80.9313 174.458 82.6818 172.708 84.8413 172.708C87.0008 172.708 88.7514 174.458 88.7514 176.617Z" fill="#DFC6FF"/>
<path d="M146.099 176.617C146.099 178.777 144.348 180.527 142.189 180.527C140.029 180.527 138.278 178.777 138.278 176.617C138.278 174.458 140.029 172.708 142.189 172.708C144.348 172.708 146.099 174.458 146.099 176.617Z" fill="#DFC6FF"/>
<path d="M203.446 176.617C203.446 178.777 201.696 180.527 199.536 180.527C197.377 180.527 195.626 178.777 195.626 176.617C195.626 174.458 197.377 172.708 199.536 172.708C201.696 172.708 203.446 174.458 203.446 176.617Z" fill="#DFC6FF"/>
<path d="M-25.9436 233.962C-25.9436 236.122 -27.6942 237.872 -29.8536 237.872C-32.0131 237.872 -33.7637 236.122 -33.7637 233.962C-33.7637 231.803 -32.0131 230.053 -29.8536 230.053C-27.6942 230.053 -25.9436 231.803 -25.9436 233.962Z" fill="#DFC6FF"/>
<path d="M31.4036 233.962C31.4036 236.122 29.6531 237.872 27.4936 237.872C25.3341 237.872 23.5835 236.122 23.5835 233.962C23.5835 231.803 25.3341 230.053 27.4936 230.053C29.6531 230.053 31.4036 231.803 31.4036 233.962Z" fill="#DFC6FF"/>
<path d="M88.7514 233.962C88.7514 236.122 87.0008 237.872 84.8413 237.872C82.6818 237.872 80.9313 236.122 80.9313 233.962C80.9313 231.803 82.6818 230.053 84.8413 230.053C87.0008 230.053 88.7514 231.803 88.7514 233.962Z" fill="#DFC6FF"/>
<path d="M146.099 233.962C146.099 236.122 144.348 237.872 142.189 237.872C140.029 237.872 138.278 236.122 138.278 233.962C138.278 231.803 140.029 230.053 142.189 230.053C144.348 230.053 146.099 231.803 146.099 233.962Z" fill="#DFC6FF"/>
<path d="M203.446 233.962C203.446 236.122 201.696 237.872 199.536 237.872C197.377 237.872 195.626 236.122 195.626 233.962C195.626 231.803 197.377 230.053 199.536 230.053C201.696 230.053 203.446 231.803 203.446 233.962Z" fill="#DFC6FF"/>
<path d="M-25.9436 291.307C-25.9436 293.467 -27.6942 295.217 -29.8536 295.217C-32.0131 295.217 -33.7637 293.467 -33.7637 291.307C-33.7637 289.148 -32.0131 287.398 -29.8536 287.398C-27.6942 287.398 -25.9436 289.148 -25.9436 291.307Z" fill="#DFC6FF"/>
<path d="M31.4036 291.307C31.4036 293.467 29.6531 295.217 27.4936 295.217C25.3341 295.217 23.5835 293.467 23.5835 291.307C23.5835 289.148 25.3341 287.398 27.4936 287.398C29.6531 287.398 31.4036 289.148 31.4036 291.307Z" fill="#DFC6FF"/>
<path d="M88.7514 291.307C88.7514 293.467 87.0008 295.217 84.8413 295.217C82.6818 295.217 80.9313 293.467 80.9313 291.307C80.9313 289.148 82.6818 287.398 84.8413 287.398C87.0008 287.398 88.7514 289.148 88.7514 291.307Z" fill="#DFC6FF"/>
<path d="M146.099 291.307C146.099 293.467 144.348 295.217 142.189 295.217C140.029 295.217 138.278 293.467 138.278 291.307C138.278 289.148 140.029 287.398 142.189 287.398C144.348 287.398 146.099 289.148 146.099 291.307Z" fill="#DFC6FF"/>
<path d="M203.446 291.307C203.446 293.467 201.696 295.217 199.536 295.217C197.377 295.217 195.626 293.467 195.626 291.307C195.626 289.148 197.377 287.398 199.536 287.398C201.696 287.398 203.446 289.148 203.446 291.307Z" fill="#DFC6FF"/>
</g>
</svg>
