<svg width="211" height="211" viewBox="0 0 211 211" fill="none" xmlns="http://www.w3.org/2000/svg">
<path opacity="0.1" fill-rule="evenodd" clip-rule="evenodd" d="M38.6462 5.4001C38.6462 8.03354 36.5114 10.1684 33.878 10.1684C31.2445 10.1684 29.1097 8.03354 29.1097 5.4001C29.1097 2.76666 31.2445 0.631836 33.878 0.631836C36.5114 0.631836 38.6462 2.76666 38.6462 5.4001ZM10.0367 5.40024C10.0367 8.03368 7.90183 10.1685 5.26839 10.1685C2.63495 10.1685 0.500122 8.03368 0.500122 5.40024C0.500122 2.7668 2.63495 0.631976 5.26839 0.631976C7.90183 0.631976 10.0367 2.7668 10.0367 5.40024ZM62.4876 10.1684C65.121 10.1684 67.2558 8.03354 67.2558 5.4001C67.2558 2.76666 65.121 0.631836 62.4876 0.631836C59.8541 0.631836 57.7193 2.76666 57.7193 5.4001C57.7193 8.03354 59.8541 10.1684 62.4876 10.1684ZM95.8654 5.4001C95.8654 8.03354 93.7306 10.1684 91.0972 10.1684C88.4637 10.1684 86.3289 8.03354 86.3289 5.4001C86.3289 2.76666 88.4637 0.631836 91.0972 0.631836C93.7306 0.631836 95.8654 2.76666 95.8654 5.4001ZM119.707 10.1684C122.34 10.1684 124.475 8.03354 124.475 5.4001C124.475 2.76666 122.34 0.631836 119.707 0.631836C117.073 0.631836 114.938 2.76666 114.938 5.4001C114.938 8.03354 117.073 10.1684 119.707 10.1684ZM153.085 5.4001C153.085 8.03354 150.95 10.1684 148.316 10.1684C145.683 10.1684 143.548 8.03354 143.548 5.4001C143.548 2.76666 145.683 0.631836 148.316 0.631836C150.95 0.631836 153.085 2.76666 153.085 5.4001ZM176.926 10.1684C179.559 10.1684 181.694 8.03354 181.694 5.4001C181.694 2.76666 179.559 0.631836 176.926 0.631836C174.293 0.631836 172.158 2.76666 172.158 5.4001C172.158 8.03354 174.293 10.1684 176.926 10.1684ZM210.304 5.4001C210.304 8.03354 208.169 10.1684 205.536 10.1684C202.902 10.1684 200.767 8.03354 200.767 5.4001C200.767 2.76666 202.902 0.631836 205.536 0.631836C208.169 0.631836 210.304 2.76666 210.304 5.4001ZM5.26839 38.778C7.90183 38.778 10.0367 36.6431 10.0367 34.0097C10.0367 31.3763 7.90183 29.2414 5.26839 29.2414C2.63495 29.2414 0.500122 31.3763 0.500122 34.0097C0.500122 36.6431 2.63495 38.778 5.26839 38.778ZM38.6462 34.0097C38.6462 36.6431 36.5114 38.778 33.878 38.778C31.2445 38.778 29.1097 36.6431 29.1097 34.0097C29.1097 31.3763 31.2445 29.2414 33.878 29.2414C36.5114 29.2414 38.6462 31.3763 38.6462 34.0097ZM62.4876 38.778C65.121 38.778 67.2558 36.6431 67.2558 34.0097C67.2558 31.3763 65.121 29.2414 62.4876 29.2414C59.8541 29.2414 57.7193 31.3763 57.7193 34.0097C57.7193 36.6431 59.8541 38.778 62.4876 38.778ZM95.8654 34.0097C95.8654 36.6431 93.7306 38.778 91.0972 38.778C88.4637 38.778 86.3289 36.6431 86.3289 34.0097C86.3289 31.3763 88.4637 29.2414 91.0972 29.2414C93.7306 29.2414 95.8654 31.3763 95.8654 34.0097ZM119.707 38.778C122.34 38.778 124.475 36.6431 124.475 34.0097C124.475 31.3763 122.34 29.2414 119.707 29.2414C117.073 29.2414 114.938 31.3763 114.938 34.0097C114.938 36.6431 117.073 38.778 119.707 38.778ZM153.085 34.0097C153.085 36.6431 150.95 38.778 148.316 38.778C145.683 38.778 143.548 36.6431 143.548 34.0097C143.548 31.3763 145.683 29.2414 148.316 29.2414C150.95 29.2414 153.085 31.3763 153.085 34.0097ZM176.926 38.778C179.559 38.778 181.694 36.6431 181.694 34.0097C181.694 31.3763 179.559 29.2414 176.926 29.2414C174.293 29.2414 172.158 31.3763 172.158 34.0097C172.158 36.6431 174.293 38.778 176.926 38.778ZM210.304 34.0097C210.304 36.6431 208.169 38.778 205.536 38.778C202.902 38.778 200.767 36.6431 200.767 34.0097C200.767 31.3763 202.902 29.2414 205.536 29.2414C208.169 29.2414 210.304 31.3763 210.304 34.0097ZM5.26839 67.3876C7.90183 67.3876 10.0367 65.2527 10.0367 62.6193C10.0367 59.9858 7.90183 57.851 5.26839 57.851C2.63495 57.851 0.500122 59.9858 0.500122 62.6193C0.500122 65.2527 2.63495 67.3876 5.26839 67.3876ZM38.6462 62.6193C38.6462 65.2527 36.5114 67.3876 33.878 67.3876C31.2445 67.3876 29.1097 65.2527 29.1097 62.6193C29.1097 59.9858 31.2445 57.851 33.878 57.851C36.5114 57.851 38.6462 59.9858 38.6462 62.6193ZM62.4876 67.3876C65.121 67.3876 67.2558 65.2527 67.2558 62.6193C67.2558 59.9858 65.121 57.851 62.4876 57.851C59.8541 57.851 57.7193 59.9858 57.7193 62.6193C57.7193 65.2527 59.8541 67.3876 62.4876 67.3876ZM95.8654 62.6193C95.8654 65.2527 93.7306 67.3876 91.0972 67.3876C88.4637 67.3876 86.3289 65.2527 86.3289 62.6193C86.3289 59.9858 88.4637 57.851 91.0972 57.851C93.7306 57.851 95.8654 59.9858 95.8654 62.6193ZM119.707 67.3876C122.34 67.3876 124.475 65.2527 124.475 62.6193C124.475 59.9858 122.34 57.851 119.707 57.851C117.073 57.851 114.938 59.9858 114.938 62.6193C114.938 65.2527 117.073 67.3876 119.707 67.3876ZM153.085 62.6193C153.085 65.2527 150.95 67.3876 148.316 67.3876C145.683 67.3876 143.548 65.2527 143.548 62.6193C143.548 59.9858 145.683 57.851 148.316 57.851C150.95 57.851 153.085 59.9858 153.085 62.6193ZM176.926 67.3876C179.559 67.3876 181.694 65.2527 181.694 62.6193C181.694 59.9858 179.559 57.851 176.926 57.851C174.293 57.851 172.158 59.9858 172.158 62.6193C172.158 65.2527 174.293 67.3876 176.926 67.3876ZM210.304 62.6193C210.304 65.2527 208.169 67.3876 205.536 67.3876C202.902 67.3876 200.767 65.2527 200.767 62.6193C200.767 59.9858 202.902 57.851 205.536 57.851C208.169 57.851 210.304 59.9858 210.304 62.6193ZM5.26839 95.9972C7.90183 95.9972 10.0367 93.8624 10.0367 91.229C10.0367 88.5955 7.90183 86.4607 5.26839 86.4607C2.63495 86.4607 0.500122 88.5955 0.500122 91.229C0.500122 93.8624 2.63495 95.9972 5.26839 95.9972ZM38.6462 91.229C38.6462 93.8624 36.5114 95.9972 33.878 95.9972C31.2445 95.9972 29.1097 93.8624 29.1097 91.229C29.1097 88.5955 31.2445 86.4607 33.878 86.4607C36.5114 86.4607 38.6462 88.5955 38.6462 91.229ZM62.4876 95.9972C65.121 95.9972 67.2558 93.8624 67.2558 91.229C67.2558 88.5955 65.121 86.4607 62.4876 86.4607C59.8541 86.4607 57.7193 88.5955 57.7193 91.229C57.7193 93.8624 59.8541 95.9972 62.4876 95.9972ZM95.8654 91.229C95.8654 93.8624 93.7306 95.9972 91.0972 95.9972C88.4637 95.9972 86.3289 93.8624 86.3289 91.229C86.3289 88.5955 88.4637 86.4607 91.0972 86.4607C93.7306 86.4607 95.8654 88.5955 95.8654 91.229ZM119.707 95.9972C122.34 95.9972 124.475 93.8624 124.475 91.229C124.475 88.5955 122.34 86.4607 119.707 86.4607C117.073 86.4607 114.938 88.5955 114.938 91.229C114.938 93.8624 117.073 95.9972 119.707 95.9972ZM153.085 91.229C153.085 93.8624 150.95 95.9972 148.316 95.9972C145.683 95.9972 143.548 93.8624 143.548 91.229C143.548 88.5955 145.683 86.4607 148.316 86.4607C150.95 86.4607 153.085 88.5955 153.085 91.229ZM176.926 95.9972C179.559 95.9972 181.694 93.8624 181.694 91.229C181.694 88.5955 179.559 86.4607 176.926 86.4607C174.293 86.4607 172.158 88.5955 172.158 91.229C172.158 93.8624 174.293 95.9972 176.926 95.9972ZM210.304 91.229C210.304 93.8624 208.169 95.9972 205.536 95.9972C202.902 95.9972 200.767 93.8624 200.767 91.229C200.767 88.5955 202.902 86.4607 205.536 86.4607C208.169 86.4607 210.304 88.5955 210.304 91.229ZM5.26839 124.607C7.90183 124.607 10.0367 122.472 10.0367 119.839C10.0367 117.205 7.90183 115.07 5.26839 115.07C2.63495 115.07 0.500122 117.205 0.500122 119.839C0.500122 122.472 2.63495 124.607 5.26839 124.607ZM38.6462 119.839C38.6462 122.472 36.5114 124.607 33.878 124.607C31.2445 124.607 29.1097 122.472 29.1097 119.839C29.1097 117.205 31.2445 115.07 33.878 115.07C36.5114 115.07 38.6462 117.205 38.6462 119.839ZM62.4876 124.607C65.121 124.607 67.2558 122.472 67.2558 119.839C67.2558 117.205 65.121 115.07 62.4876 115.07C59.8541 115.07 57.7193 117.205 57.7193 119.839C57.7193 122.472 59.8541 124.607 62.4876 124.607ZM95.8654 119.839C95.8654 122.472 93.7306 124.607 91.0972 124.607C88.4637 124.607 86.3289 122.472 86.3289 119.839C86.3289 117.205 88.4637 115.07 91.0972 115.07C93.7306 115.07 95.8654 117.205 95.8654 119.839ZM119.707 124.607C122.34 124.607 124.475 122.472 124.475 119.839C124.475 117.205 122.34 115.07 119.707 115.07C117.073 115.07 114.938 117.205 114.938 119.839C114.938 122.472 117.073 124.607 119.707 124.607ZM153.085 119.839C153.085 122.472 150.95 124.607 148.316 124.607C145.683 124.607 143.548 122.472 143.548 119.839C143.548 117.205 145.683 115.07 148.316 115.07C150.95 115.07 153.085 117.205 153.085 119.839ZM176.926 124.607C179.559 124.607 181.694 122.472 181.694 119.839C181.694 117.205 179.559 115.07 176.926 115.07C174.293 115.07 172.158 117.205 172.158 119.839C172.158 122.472 174.293 124.607 176.926 124.607ZM210.304 119.839C210.304 122.472 208.169 124.607 205.536 124.607C202.902 124.607 200.767 122.472 200.767 119.839C200.767 117.205 202.902 115.07 205.536 115.07C208.169 115.07 210.304 117.205 210.304 119.839ZM5.26839 153.216C7.90183 153.216 10.0367 151.081 10.0367 148.448C10.0367 145.815 7.90183 143.68 5.26839 143.68C2.63495 143.68 0.500122 145.815 0.500122 148.448C0.500122 151.081 2.63495 153.216 5.26839 153.216ZM38.6462 148.448C38.6462 151.081 36.5114 153.216 33.878 153.216C31.2445 153.216 29.1097 151.081 29.1097 148.448C29.1097 145.815 31.2445 143.68 33.878 143.68C36.5114 143.68 38.6462 145.815 38.6462 148.448ZM62.4876 153.216C65.121 153.216 67.2558 151.081 67.2558 148.448C67.2558 145.815 65.121 143.68 62.4876 143.68C59.8541 143.68 57.7193 145.815 57.7193 148.448C57.7193 151.081 59.8541 153.216 62.4876 153.216ZM95.8654 148.448C95.8654 151.081 93.7306 153.216 91.0972 153.216C88.4637 153.216 86.3289 151.081 86.3289 148.448C86.3289 145.815 88.4637 143.68 91.0972 143.68C93.7306 143.68 95.8654 145.815 95.8654 148.448ZM119.707 153.216C122.34 153.216 124.475 151.081 124.475 148.448C124.475 145.815 122.34 143.68 119.707 143.68C117.073 143.68 114.938 145.815 114.938 148.448C114.938 151.081 117.073 153.216 119.707 153.216ZM153.085 148.448C153.085 151.081 150.95 153.216 148.316 153.216C145.683 153.216 143.548 151.081 143.548 148.448C143.548 145.815 145.683 143.68 148.316 143.68C150.95 143.68 153.085 145.815 153.085 148.448ZM176.926 153.216C179.559 153.216 181.694 151.081 181.694 148.448C181.694 145.815 179.559 143.68 176.926 143.68C174.293 143.68 172.158 145.815 172.158 148.448C172.158 151.081 174.293 153.216 176.926 153.216ZM210.304 148.448C210.304 151.081 208.169 153.216 205.536 153.216C202.902 153.216 200.767 151.081 200.767 148.448C200.767 145.815 202.902 143.68 205.536 143.68C208.169 143.68 210.304 145.815 210.304 148.448ZM5.26839 181.826C7.90183 181.826 10.0367 179.691 10.0367 177.058C10.0367 174.424 7.90183 172.289 5.26839 172.289C2.63495 172.289 0.500122 174.424 0.500122 177.058C0.500122 179.691 2.63495 181.826 5.26839 181.826ZM38.6462 177.058C38.6462 179.691 36.5114 181.826 33.878 181.826C31.2445 181.826 29.1097 179.691 29.1097 177.058C29.1097 174.424 31.2445 172.289 33.878 172.289C36.5114 172.289 38.6462 174.424 38.6462 177.058ZM62.4876 181.826C65.121 181.826 67.2558 179.691 67.2558 177.058C67.2558 174.424 65.121 172.289 62.4876 172.289C59.8541 172.289 57.7193 174.424 57.7193 177.058C57.7193 179.691 59.8541 181.826 62.4876 181.826ZM95.8654 177.058C95.8654 179.691 93.7306 181.826 91.0972 181.826C88.4637 181.826 86.3289 179.691 86.3289 177.058C86.3289 174.424 88.4637 172.289 91.0972 172.289C93.7306 172.289 95.8654 174.424 95.8654 177.058ZM119.707 181.826C122.34 181.826 124.475 179.691 124.475 177.058C124.475 174.424 122.34 172.289 119.707 172.289C117.073 172.289 114.938 174.424 114.938 177.058C114.938 179.691 117.073 181.826 119.707 181.826ZM153.085 177.058C153.085 179.691 150.95 181.826 148.316 181.826C145.683 181.826 143.548 179.691 143.548 177.058C143.548 174.424 145.683 172.289 148.316 172.289C150.95 172.289 153.085 174.424 153.085 177.058ZM176.926 181.826C179.559 181.826 181.694 179.691 181.694 177.058C181.694 174.424 179.559 172.289 176.926 172.289C174.293 172.289 172.158 174.424 172.158 177.058C172.158 179.691 174.293 181.826 176.926 181.826ZM210.304 177.058C210.304 179.691 208.169 181.826 205.536 181.826C202.902 181.826 200.767 179.691 200.767 177.058C200.767 174.424 202.902 172.289 205.536 172.289C208.169 172.289 210.304 174.424 210.304 177.058ZM5.26839 210.436C7.90183 210.436 10.0367 208.301 10.0367 205.667C10.0367 203.034 7.90183 200.899 5.26839 200.899C2.63495 200.899 0.500122 203.034 0.500122 205.667C0.500122 208.301 2.63495 210.436 5.26839 210.436ZM38.6462 205.667C38.6462 208.301 36.5114 210.436 33.878 210.436C31.2445 210.436 29.1097 208.301 29.1097 205.667C29.1097 203.034 31.2445 200.899 33.878 200.899C36.5114 200.899 38.6462 203.034 38.6462 205.667ZM62.4876 210.436C65.121 210.436 67.2558 208.301 67.2558 205.667C67.2558 203.034 65.121 200.899 62.4876 200.899C59.8541 200.899 57.7193 203.034 57.7193 205.667C57.7193 208.301 59.8541 210.436 62.4876 210.436ZM95.8654 205.667C95.8654 208.301 93.7306 210.436 91.0972 210.436C88.4637 210.436 86.3289 208.301 86.3289 205.667C86.3289 203.034 88.4637 200.899 91.0972 200.899C93.7306 200.899 95.8654 203.034 95.8654 205.667ZM119.707 210.436C122.34 210.436 124.475 208.301 124.475 205.667C124.475 203.034 122.34 200.899 119.707 200.899C117.073 200.899 114.938 203.034 114.938 205.667C114.938 208.301 117.073 210.436 119.707 210.436ZM153.085 205.667C153.085 208.301 150.95 210.436 148.316 210.436C145.683 210.436 143.548 208.301 143.548 205.667C143.548 203.034 145.683 200.899 148.316 200.899C150.95 200.899 153.085 203.034 153.085 205.667ZM176.926 210.436C179.559 210.436 181.694 208.301 181.694 205.667C181.694 203.034 179.559 200.899 176.926 200.899C174.293 200.899 172.158 203.034 172.158 205.667C172.158 208.301 174.293 210.436 176.926 210.436ZM210.304 205.667C210.304 208.301 208.169 210.436 205.536 210.436C202.902 210.436 200.767 208.301 200.767 205.667C200.767 203.034 202.902 200.899 205.536 200.899C208.169 200.899 210.304 203.034 210.304 205.667Z" fill="#F1F0FF"/>
</svg>
