<svg width="611" height="171" viewBox="0 0 611 171" fill="none" xmlns="http://www.w3.org/2000/svg">
<g filter="url(#filter0_bdi)">
<path fill-rule="evenodd" clip-rule="evenodd" d="M31.6108 38.9454C31.6108 34.7176 35.0382 31.2903 39.266 31.2903H430.793H541.443C545.671 31.2903 549.098 34.7176 549.098 38.9454V101.718C549.098 105.945 545.671 109.373 541.443 109.373H39.266C35.0382 109.373 31.6108 105.945 31.6108 101.718V38.9454Z" fill="url(#paint0_linear)" fill-opacity="0.6"/>
</g>
<rect x="530.911" y="91.1929" width="40.1895" height="40.1895" rx="20.0947" transform="rotate(-180 530.911 91.1929)" fill="url(#paint1_linear)"/>
<g filter="url(#filter1_f)">
<rect x="530.911" y="91.1929" width="40.1895" height="40.1895" rx="20.0947" transform="rotate(-180 530.911 91.1929)" fill="url(#paint2_linear)"/>
</g>
<path fill-rule="evenodd" clip-rule="evenodd" d="M503.35 70.3076C503.454 70.2039 503.577 70.1216 503.712 70.0655C503.847 70.0094 503.992 69.9805 504.139 69.9805C504.285 69.9805 504.43 70.0094 504.565 70.0655C504.701 70.1216 504.824 70.2039 504.927 70.3076L510.819 76.2022L516.712 70.3076C516.921 70.0985 517.204 69.981 517.5 69.981C517.796 69.981 518.079 70.0985 518.288 70.3076C518.498 70.5167 518.615 70.8002 518.615 71.0959C518.615 71.3916 518.498 71.6752 518.288 71.8842L511.608 78.565C511.504 78.6687 511.381 78.7509 511.246 78.8071C511.111 78.8632 510.966 78.8921 510.819 78.8921C510.673 78.8921 510.528 78.8632 510.393 78.8071C510.257 78.7509 510.134 78.6687 510.031 78.565L503.35 71.8842C503.247 71.7808 503.164 71.6579 503.108 71.5227C503.052 71.3874 503.023 71.2424 503.023 71.0959C503.023 70.9495 503.052 70.8044 503.108 70.6692C503.164 70.5339 503.247 70.411 503.35 70.3076Z" fill="white"/>
<path fill-rule="evenodd" clip-rule="evenodd" d="M510.818 63.3026C511.114 63.3026 511.397 63.4199 511.606 63.6287C511.814 63.8375 511.932 64.1207 511.932 64.416V75.5506C511.932 75.8459 511.814 76.1291 511.606 76.3379C511.397 76.5468 511.114 76.6641 510.818 76.6641C510.523 76.6641 510.24 76.5468 510.031 76.3379C509.822 76.1291 509.705 75.8459 509.705 75.5506V64.416C509.705 64.1207 509.822 63.8375 510.031 63.6287C510.24 63.4199 510.523 63.3026 510.818 63.3026Z" fill="white"/>
<path d="M70.9563 71.0368C70.9563 69.3438 71.338 67.8252 72.1015 66.4808C72.865 65.1199 73.9023 64.0576 75.2135 63.2942C76.5413 62.5307 78.0101 62.1489 79.6201 62.1489C81.5121 62.1489 83.1636 62.6054 84.5743 63.5182C85.9851 64.4311 87.0141 65.7257 87.6614 67.402H84.9478C84.4664 66.3563 83.7694 65.5514 82.8565 64.9871C81.9603 64.4228 80.8814 64.1406 79.6201 64.1406C78.4085 64.1406 77.3213 64.4228 76.3587 64.9871C75.3961 65.5514 74.6409 66.3563 74.0932 67.402C73.5455 68.431 73.2716 69.6426 73.2716 71.0368C73.2716 72.4143 73.5455 73.6259 74.0932 74.6716C74.6409 75.7006 75.3961 76.4973 76.3587 77.0616C77.3213 77.6259 78.4085 77.908 79.6201 77.908C80.8814 77.908 81.9603 77.6342 82.8565 77.0865C83.7694 76.5221 84.4664 75.7172 84.9478 74.6716H87.6614C87.0141 76.3313 85.9851 77.6176 84.5743 78.5304C83.1636 79.4267 81.5121 79.8748 79.6201 79.8748C78.0101 79.8748 76.5413 79.5014 75.2135 78.7545C73.9023 77.991 72.865 76.9371 72.1015 75.5927C71.338 74.2483 70.9563 72.7297 70.9563 71.0368Z" fill="white"/>
<path d="M97.8055 65.8335C98.8345 65.8335 99.764 66.0576 100.594 66.5057C101.424 66.9372 102.071 67.5928 102.536 68.4725C103.017 69.3521 103.258 70.4227 103.258 71.6841V79.7254H101.017V72.0077C101.017 70.6467 100.677 69.6094 99.9963 68.8957C99.3158 68.1654 98.3864 67.8003 97.208 67.8003C96.013 67.8003 95.0587 68.1737 94.345 68.9206C93.6479 69.6675 93.2993 70.7546 93.2993 72.182V79.7254H91.0338V61.3025H93.2993V68.0244C93.7475 67.3273 94.3616 66.7879 95.1416 66.4061C95.9383 66.0244 96.8263 65.8335 97.8055 65.8335Z" fill="white"/>
<path d="M106.112 72.8542C106.112 71.46 106.394 70.2401 106.958 69.1945C107.523 68.1322 108.294 67.3107 109.274 66.7298C110.27 66.1489 111.373 65.8584 112.585 65.8584C113.78 65.8584 114.817 66.1157 115.697 66.6302C116.577 67.1447 117.232 67.792 117.664 68.5721V66.0825H119.954V79.7254H117.664V77.186C117.215 77.9827 116.543 78.6466 115.647 79.1777C114.767 79.6922 113.738 79.9495 112.56 79.9495C111.348 79.9495 110.253 79.6507 109.274 79.0532C108.294 78.4557 107.523 77.6176 106.958 76.5387C106.394 75.4599 106.112 74.2317 106.112 72.8542ZM117.664 72.8791C117.664 71.85 117.456 70.9538 117.041 70.1903C116.626 69.4268 116.062 68.8459 115.348 68.4476C114.651 68.0327 113.879 67.8252 113.033 67.8252C112.187 67.8252 111.415 68.0244 110.718 68.4227C110.021 68.821 109.465 69.4019 109.05 70.1654C108.635 70.9289 108.427 71.8251 108.427 72.8542C108.427 73.8998 108.635 74.8126 109.05 75.5927C109.465 76.3562 110.021 76.9454 110.718 77.3603C111.415 77.7586 112.187 77.9578 113.033 77.9578C113.879 77.9578 114.651 77.7586 115.348 77.3603C116.062 76.9454 116.626 76.3562 117.041 75.5927C117.456 74.8126 117.664 73.9081 117.664 72.8791Z" fill="white"/>
<path d="M140.189 65.8335C141.251 65.8335 142.197 66.0576 143.027 66.5057C143.857 66.9372 144.513 67.5928 144.994 68.4725C145.475 69.3521 145.716 70.4227 145.716 71.6841V79.7254H143.475V72.0077C143.475 70.6467 143.135 69.6094 142.454 68.8957C141.791 68.1654 140.886 67.8003 139.741 67.8003C138.562 67.8003 137.625 68.182 136.928 68.9455C136.23 69.6924 135.882 70.7795 135.882 72.2069V79.7254H133.641V72.0077C133.641 70.6467 133.301 69.6094 132.621 68.8957C131.957 68.1654 131.052 67.8003 129.907 67.8003C128.729 67.8003 127.791 68.182 127.094 68.9455C126.397 69.6924 126.048 70.7795 126.048 72.2069V79.7254H123.783V66.0825H126.048V68.0493C126.496 67.3356 127.094 66.7879 127.841 66.4061C128.604 66.0244 129.442 65.8335 130.355 65.8335C131.5 65.8335 132.513 66.0908 133.392 66.6053C134.272 67.1198 134.928 67.875 135.359 68.8708C135.741 67.9082 136.372 67.1613 137.251 66.6302C138.131 66.0991 139.11 65.8335 140.189 65.8335Z" fill="white"/>
<path d="M148.586 72.8542C148.586 71.46 148.868 70.2401 149.432 69.1945C149.996 68.1322 150.768 67.3107 151.747 66.7298C152.743 66.1489 153.847 65.8584 155.059 65.8584C156.254 65.8584 157.291 66.1157 158.171 66.6302C159.05 67.1447 159.706 67.792 160.137 68.5721V66.0825H162.428V79.7254H160.137V77.186C159.689 77.9827 159.017 78.6466 158.121 79.1777C157.241 79.6922 156.212 79.9495 155.034 79.9495C153.822 79.9495 152.727 79.6507 151.747 79.0532C150.768 78.4557 149.996 77.6176 149.432 76.5387C148.868 75.4599 148.586 74.2317 148.586 72.8542ZM160.137 72.8791C160.137 71.85 159.93 70.9538 159.515 70.1903C159.1 69.4268 158.536 68.8459 157.822 68.4476C157.125 68.0327 156.353 67.8252 155.507 67.8252C154.66 67.8252 153.888 68.0244 153.191 68.4227C152.494 68.821 151.938 69.4019 151.523 70.1654C151.108 70.9289 150.901 71.8251 150.901 72.8542C150.901 73.8998 151.108 74.8126 151.523 75.5927C151.938 76.3562 152.494 76.9454 153.191 77.3603C153.888 77.7586 154.66 77.9578 155.507 77.9578C156.353 77.9578 157.125 77.7586 157.822 77.3603C158.536 76.9454 159.1 76.3562 159.515 75.5927C159.93 74.8126 160.137 73.9081 160.137 72.8791Z" fill="white"/>
<path d="M165.41 72.8542C165.41 71.46 165.692 70.2401 166.256 69.1945C166.821 68.1322 167.592 67.3107 168.572 66.7298C169.567 66.1489 170.679 65.8584 171.908 65.8584C172.97 65.8584 173.957 66.1074 174.87 66.6053C175.783 67.0866 176.48 67.7256 176.961 68.5223V61.3025H179.252V79.7254H176.961V77.1611C176.513 77.9744 175.849 78.6466 174.97 79.1777C174.09 79.6922 173.061 79.9495 171.883 79.9495C170.671 79.9495 169.567 79.6507 168.572 79.0532C167.592 78.4557 166.821 77.6176 166.256 76.5387C165.692 75.4599 165.41 74.2317 165.41 72.8542ZM176.961 72.8791C176.961 71.85 176.754 70.9538 176.339 70.1903C175.924 69.4268 175.36 68.8459 174.646 68.4476C173.949 68.0327 173.177 67.8252 172.331 67.8252C171.484 67.8252 170.713 68.0244 170.016 68.4227C169.318 68.821 168.762 69.4019 168.347 70.1654C167.933 70.9289 167.725 71.8251 167.725 72.8542C167.725 73.8998 167.933 74.8126 168.347 75.5927C168.762 76.3562 169.318 76.9454 170.016 77.3603C170.713 77.7586 171.484 77.9578 172.331 77.9578C173.177 77.9578 173.949 77.7586 174.646 77.3603C175.36 76.9454 175.924 76.3562 176.339 75.5927C176.754 74.8126 176.961 73.9081 176.961 72.8791Z" fill="white"/>
<path d="M182.234 72.8542C182.234 71.46 182.516 70.2401 183.08 69.1945C183.645 68.1322 184.416 67.3107 185.396 66.7298C186.392 66.1489 187.495 65.8584 188.707 65.8584C189.902 65.8584 190.939 66.1157 191.819 66.6302C192.698 67.1447 193.354 67.792 193.786 68.5721V66.0825H196.076V79.7254H193.786V77.186C193.337 77.9827 192.665 78.6466 191.769 79.1777C190.889 79.6922 189.86 79.9495 188.682 79.9495C187.47 79.9495 186.375 79.6507 185.396 79.0532C184.416 78.4557 183.645 77.6176 183.08 76.5387C182.516 75.4599 182.234 74.2317 182.234 72.8542ZM193.786 72.8791C193.786 71.85 193.578 70.9538 193.163 70.1903C192.748 69.4268 192.184 68.8459 191.47 68.4476C190.773 68.0327 190.001 67.8252 189.155 67.8252C188.309 67.8252 187.537 68.0244 186.84 68.4227C186.143 68.821 185.587 69.4019 185.172 70.1654C184.757 70.9289 184.549 71.8251 184.549 72.8542C184.549 73.8998 184.757 74.8126 185.172 75.5927C185.587 76.3562 186.143 76.9454 186.84 77.3603C187.537 77.7586 188.309 77.9578 189.155 77.9578C190.001 77.9578 190.773 77.7586 191.47 77.3603C192.184 76.9454 192.748 76.3562 193.163 75.5927C193.578 74.8126 193.786 73.9081 193.786 72.8791Z" fill="white"/>
<path d="M204.734 79.9495C203.689 79.9495 202.751 79.7752 201.921 79.4267C201.091 79.0615 200.436 78.5636 199.954 77.9329C199.473 77.2856 199.207 76.547 199.158 75.7172H201.498C201.564 76.3977 201.88 76.9537 202.444 77.3852C203.025 77.8167 203.78 78.0325 204.709 78.0325C205.572 78.0325 206.253 77.8416 206.751 77.4599C207.249 77.0782 207.498 76.5968 207.498 76.0159C207.498 75.4184 207.232 74.9786 206.701 74.6965C206.17 74.3977 205.348 74.1073 204.236 73.8251C203.224 73.5595 202.394 73.294 201.747 73.0284C201.116 72.7463 200.568 72.3396 200.104 71.8085C199.656 71.2608 199.431 70.5471 199.431 69.6675C199.431 68.9704 199.639 68.3314 200.054 67.7505C200.469 67.1696 201.058 66.7132 201.821 66.3812C202.585 66.0327 203.456 65.8584 204.436 65.8584C205.946 65.8584 207.166 66.2402 208.095 67.0036C209.025 67.7671 209.523 68.8127 209.589 70.1405H207.323C207.274 69.4268 206.983 68.8542 206.452 68.4227C205.938 67.9912 205.241 67.7754 204.361 67.7754C203.548 67.7754 202.9 67.9497 202.419 68.2982C201.938 68.6468 201.697 69.1032 201.697 69.6675C201.697 70.1156 201.838 70.4891 202.12 70.7878C202.419 71.07 202.784 71.3023 203.216 71.4849C203.664 71.6509 204.278 71.8417 205.058 72.0575C206.037 72.323 206.834 72.5886 207.448 72.8542C208.062 73.1031 208.585 73.4849 209.016 73.9994C209.465 74.5139 209.697 75.1861 209.713 76.0159C209.713 76.7628 209.506 77.435 209.091 78.0325C208.676 78.63 208.087 79.103 207.323 79.4516C206.577 79.7835 205.714 79.9495 204.734 79.9495Z" fill="white"/>
<path d="M218.702 71.0368C218.702 69.3438 219.084 67.8252 219.848 66.4808C220.611 65.1199 221.648 64.0576 222.96 63.2942C224.287 62.5307 225.756 62.1489 227.366 62.1489C229.258 62.1489 230.91 62.6054 232.32 63.5182C233.731 64.4311 234.76 65.7257 235.408 67.402H232.694C232.213 66.3563 231.515 65.5514 230.603 64.9871C229.706 64.4228 228.628 64.1406 227.366 64.1406C226.155 64.1406 225.067 64.4228 224.105 64.9871C223.142 65.5514 222.387 66.3563 221.839 67.402C221.292 68.431 221.018 69.6426 221.018 71.0368C221.018 72.4143 221.292 73.6259 221.839 74.6716C222.387 75.7006 223.142 76.4973 224.105 77.0616C225.067 77.6259 226.155 77.908 227.366 77.908C228.628 77.908 229.706 77.6342 230.603 77.0865C231.515 76.5221 232.213 75.7172 232.694 74.6716H235.408C234.76 76.3313 233.731 77.6176 232.32 78.5304C230.91 79.4267 229.258 79.8748 227.366 79.8748C225.756 79.8748 224.287 79.5014 222.96 78.7545C221.648 77.991 220.611 76.9371 219.848 75.5927C219.084 74.2483 218.702 72.7297 218.702 71.0368Z" fill="white"/>
<path d="M244.73 79.9495C243.452 79.9495 242.29 79.659 241.245 79.0781C240.216 78.4972 239.402 77.6757 238.805 76.6134C238.224 75.5346 237.934 74.2898 237.934 72.8791C237.934 71.4849 238.232 70.2567 238.83 69.1945C239.444 68.1157 240.274 67.2941 241.319 66.7298C242.365 66.1489 243.535 65.8584 244.83 65.8584C246.124 65.8584 247.294 66.1489 248.34 66.7298C249.386 67.2941 250.207 68.1074 250.805 69.1696C251.419 70.2318 251.726 71.4683 251.726 72.8791C251.726 74.2898 251.41 75.5346 250.78 76.6134C250.166 77.6757 249.327 78.4972 248.265 79.0781C247.203 79.659 246.025 79.9495 244.73 79.9495ZM244.73 77.9578C245.543 77.9578 246.307 77.7669 247.02 77.3852C247.734 77.0035 248.307 76.4309 248.738 75.6674C249.186 74.9039 249.41 73.9745 249.41 72.8791C249.41 71.7836 249.195 70.8542 248.763 70.0907C248.332 69.3273 247.767 68.7629 247.07 68.3978C246.373 68.0161 245.618 67.8252 244.805 67.8252C243.975 67.8252 243.211 68.0161 242.514 68.3978C241.834 68.7629 241.286 69.3273 240.871 70.0907C240.456 70.8542 240.249 71.7836 240.249 72.8791C240.249 73.9911 240.448 74.9288 240.846 75.6923C241.261 76.4558 241.809 77.0284 242.489 77.4101C243.17 77.7752 243.917 77.9578 244.73 77.9578Z" fill="white"/>
<path d="M271.111 65.8335C272.173 65.8335 273.119 66.0576 273.949 66.5057C274.779 66.9372 275.434 67.5928 275.916 68.4725C276.397 69.3521 276.638 70.4227 276.638 71.6841V79.7254H274.397V72.0077C274.397 70.6467 274.057 69.6094 273.376 68.8957C272.713 68.1654 271.808 67.8003 270.663 67.8003C269.484 67.8003 268.547 68.182 267.85 68.9455C267.152 69.6924 266.804 70.7795 266.804 72.2069V79.7254H264.563V72.0077C264.563 70.6467 264.223 69.6094 263.543 68.8957C262.879 68.1654 261.974 67.8003 260.829 67.8003C259.651 67.8003 258.713 68.182 258.016 68.9455C257.319 69.6924 256.97 70.7795 256.97 72.2069V79.7254H254.705V66.0825H256.97V68.0493C257.418 67.3356 258.016 66.7879 258.763 66.4061C259.526 66.0244 260.364 65.8335 261.277 65.8335C262.422 65.8335 263.435 66.0908 264.314 66.6053C265.194 67.1198 265.85 67.875 266.281 68.8708C266.663 67.9082 267.294 67.1613 268.173 66.6302C269.053 66.0991 270.032 65.8335 271.111 65.8335Z" fill="white"/>
<path d="M282.62 68.597C283.068 67.8169 283.732 67.1696 284.611 66.6551C285.508 66.124 286.545 65.8584 287.723 65.8584C288.935 65.8584 290.03 66.1489 291.009 66.7298C292.005 67.3107 292.785 68.1322 293.35 69.1945C293.914 70.2401 294.196 71.46 294.196 72.8542C294.196 74.2317 293.914 75.4599 293.35 76.5387C292.785 77.6176 292.005 78.4557 291.009 79.0532C290.03 79.6507 288.935 79.9495 287.723 79.9495C286.561 79.9495 285.532 79.6922 284.636 79.1777C283.757 78.6466 283.084 77.991 282.62 77.2109V86.1983H280.354V66.0825H282.62V68.597ZM291.881 72.8542C291.881 71.8251 291.673 70.9289 291.258 70.1654C290.844 69.4019 290.279 68.821 289.566 68.4227C288.868 68.0244 288.097 67.8252 287.25 67.8252C286.42 67.8252 285.649 68.0327 284.935 68.4476C284.238 68.8459 283.674 69.4351 283.242 70.2152C282.827 70.9787 282.62 71.8666 282.62 72.8791C282.62 73.9081 282.827 74.8126 283.242 75.5927C283.674 76.3562 284.238 76.9454 284.935 77.3603C285.649 77.7586 286.42 77.9578 287.25 77.9578C288.097 77.9578 288.868 77.7586 289.566 77.3603C290.279 76.9454 290.844 76.3562 291.258 75.5927C291.673 74.8126 291.881 73.8998 291.881 72.8542Z" fill="white"/>
<path d="M299.444 61.3025V79.7254H297.178V61.3025H299.444Z" fill="white"/>
<path d="M315.753 72.3811C315.753 72.8127 315.728 73.2691 315.678 73.7504H304.774C304.857 75.0948 305.313 76.1487 306.143 76.9122C306.99 77.6591 308.01 78.0325 309.205 78.0325C310.184 78.0325 310.998 77.8084 311.645 77.3603C312.309 76.8956 312.774 76.2815 313.039 75.518H315.479C315.114 76.8292 314.384 77.8997 313.288 78.7296C312.193 79.5428 310.832 79.9495 309.205 79.9495C307.911 79.9495 306.749 79.659 305.72 79.0781C304.707 78.4972 303.911 77.6757 303.33 76.6134C302.749 75.5346 302.458 74.2898 302.458 72.8791C302.458 71.4683 302.741 70.2318 303.305 69.1696C303.869 68.1074 304.658 67.2941 305.67 66.7298C306.699 66.1489 307.877 65.8584 309.205 65.8584C310.5 65.8584 311.645 66.1406 312.641 66.7049C313.637 67.2692 314.4 68.0493 314.931 69.0451C315.479 70.0243 315.753 71.1363 315.753 72.3811ZM313.413 71.9081C313.413 71.0451 313.222 70.3065 312.84 69.6924C312.458 69.0617 311.935 68.5887 311.272 68.2733C310.624 67.9414 309.902 67.7754 309.106 67.7754C307.96 67.7754 306.981 68.1405 306.168 68.8708C305.371 69.6011 304.915 70.6135 304.799 71.9081H313.413Z" fill="white"/>
<path d="M321.507 67.9497V75.991C321.507 76.6549 321.648 77.1279 321.93 77.4101C322.212 77.6757 322.702 77.8084 323.399 77.8084H325.067V79.7254H323.025C321.764 79.7254 320.818 79.435 320.187 78.8541C319.557 78.2732 319.241 77.3188 319.241 75.991V67.9497H317.474V66.0825H319.241V62.6469H321.507V66.0825H325.067V67.9497H321.507Z" fill="white"/>
<path d="M326.965 72.8542C326.965 71.46 327.247 70.2401 327.812 69.1945C328.376 68.1322 329.148 67.3107 330.127 66.7298C331.123 66.1489 332.227 65.8584 333.438 65.8584C334.633 65.8584 335.671 66.1157 336.55 66.6302C337.43 67.1447 338.085 67.792 338.517 68.5721V66.0825H340.807V79.7254H338.517V77.186C338.069 77.9827 337.397 78.6466 336.5 79.1777C335.621 79.6922 334.592 79.9495 333.413 79.9495C332.202 79.9495 331.106 79.6507 330.127 79.0532C329.148 78.4557 328.376 77.6176 327.812 76.5387C327.247 75.4599 326.965 74.2317 326.965 72.8542ZM338.517 72.8791C338.517 71.85 338.309 70.9538 337.895 70.1903C337.48 69.4268 336.915 68.8459 336.202 68.4476C335.505 68.0327 334.733 67.8252 333.886 67.8252C333.04 67.8252 332.268 68.0244 331.571 68.4227C330.874 68.821 330.318 69.4019 329.903 70.1654C329.488 70.9289 329.281 71.8251 329.281 72.8542C329.281 73.8998 329.488 74.8126 329.903 75.5927C330.318 76.3562 330.874 76.9454 331.571 77.3603C332.268 77.7586 333.04 77.9578 333.886 77.9578C334.733 77.9578 335.505 77.7586 336.202 77.3603C336.915 76.9454 337.48 76.3562 337.895 75.5927C338.309 74.8126 338.517 73.9081 338.517 72.8791Z" fill="white"/>
<path d="M349.466 79.9495C348.42 79.9495 347.482 79.7752 346.652 79.4267C345.823 79.0615 345.167 78.5636 344.686 77.9329C344.204 77.2856 343.939 76.547 343.889 75.7172H346.229C346.296 76.3977 346.611 76.9537 347.175 77.3852C347.756 77.8167 348.511 78.0325 349.441 78.0325C350.304 78.0325 350.984 77.8416 351.482 77.4599C351.98 77.0782 352.229 76.5968 352.229 76.0159C352.229 75.4184 351.964 74.9786 351.432 74.6965C350.901 74.3977 350.08 74.1073 348.968 73.8251C347.955 73.5595 347.126 73.294 346.478 73.0284C345.848 72.7463 345.3 72.3396 344.835 71.8085C344.387 71.2608 344.163 70.5471 344.163 69.6675C344.163 68.9704 344.37 68.3314 344.785 67.7505C345.2 67.1696 345.789 66.7132 346.553 66.3812C347.316 66.0327 348.188 65.8584 349.167 65.8584C350.677 65.8584 351.897 66.2402 352.827 67.0036C353.756 67.7671 354.254 68.8127 354.32 70.1405H352.055C352.005 69.4268 351.715 68.8542 351.184 68.4227C350.669 67.9912 349.972 67.7754 349.092 67.7754C348.279 67.7754 347.632 67.9497 347.15 68.2982C346.669 68.6468 346.428 69.1032 346.428 69.6675C346.428 70.1156 346.57 70.4891 346.852 70.7878C347.15 71.07 347.516 71.3023 347.947 71.4849C348.395 71.6509 349.009 71.8417 349.789 72.0575C350.769 72.323 351.565 72.5886 352.179 72.8542C352.793 73.1031 353.316 73.4849 353.748 73.9994C354.196 74.5139 354.428 75.1861 354.445 76.0159C354.445 76.7628 354.237 77.435 353.822 78.0325C353.408 78.63 352.818 79.103 352.055 79.4516C351.308 79.7835 350.445 79.9495 349.466 79.9495Z" fill="white"/>
<defs>
<filter id="filter0_bdi" x="0.990284" y="0.669727" width="609.349" height="169.944" filterUnits="userSpaceOnUse" color-interpolation-filters="sRGB">
<feFlood flood-opacity="0" result="BackgroundImageFix"/>
<feGaussianBlur in="BackgroundImage" stdDeviation="9.76557"/>
<feComposite in2="SourceAlpha" operator="in" result="effect1_backgroundBlur"/>
<feColorMatrix in="SourceAlpha" type="matrix" values="0 0 0 0 0 0 0 0 0 0 0 0 0 0 0 0 0 0 127 0"/>
<feOffset dx="15.3103" dy="15.3103"/>
<feGaussianBlur stdDeviation="22.9654"/>
<feColorMatrix type="matrix" values="0 0 0 0 0.0885117 0 0 0 0 0.0670312 0 0 0 0 0.1625 0 0 0 0.35 0"/>
<feBlend mode="normal" in2="effect1_backgroundBlur" result="effect2_dropShadow"/>
<feBlend mode="normal" in="SourceGraphic" in2="effect2_dropShadow" result="shape"/>
<feColorMatrix in="SourceAlpha" type="matrix" values="0 0 0 0 0 0 0 0 0 0 0 0 0 0 0 0 0 0 127 0" result="hardAlpha"/>
<feOffset dx="1.53103" dy="1.53103"/>
<feComposite in2="hardAlpha" operator="arithmetic" k2="-1" k3="1"/>
<feColorMatrix type="matrix" values="0 0 0 0 1 0 0 0 0 1 0 0 0 0 1 0 0 0 0.1 0"/>
<feBlend mode="normal" in2="shape" result="effect3_innerShadow"/>
</filter>
<filter id="filter1_f" x="489.761" y="50.0427" width="42.111" height="42.111" filterUnits="userSpaceOnUse" color-interpolation-filters="sRGB">
<feFlood flood-opacity="0" result="BackgroundImageFix"/>
<feBlend mode="normal" in="SourceGraphic" in2="BackgroundImageFix" result="shape"/>
<feGaussianBlur stdDeviation="0.480383" result="effect1_foregroundBlur"/>
</filter>
<linearGradient id="paint0_linear" x1="290.354" y1="-12.8033" x2="290.354" y2="109.373" gradientUnits="userSpaceOnUse">
<stop stop-color="#493B6F"/>
<stop offset="1" stop-color="#1C1832"/>
</linearGradient>
<linearGradient id="paint1_linear" x1="564.068" y1="126.359" x2="538.949" y2="95.7142" gradientUnits="userSpaceOnUse">
<stop stop-color="#D53333"/>
<stop offset="1" stop-color="#FE6565"/>
</linearGradient>
<linearGradient id="paint2_linear" x1="550.239" y1="79.5915" x2="571.192" y2="121.222" gradientUnits="userSpaceOnUse">
<stop stop-color="#00CAAD"/>
<stop offset="1" stop-color="#7168ED"/>
</linearGradient>
</defs>
</svg>
