<svg width="54" height="54" viewBox="0 0 54 54" fill="none" xmlns="http://www.w3.org/2000/svg">
<path fill-rule="evenodd" clip-rule="evenodd" d="M19.4165 45.1749C17.1343 44.2046 16.0508 41.5925 17.0066 39.3444L29.2163 10.6268C30.1701 8.38334 32.8003 7.34469 35.0871 8.31698C37.3763 9.29027 38.4528 11.8994 37.497 14.1474L25.2873 42.8651C24.3305 45.1154 21.7057 46.1482 19.4165 45.1749Z" fill="#C5BCFF"/>
<path fill-rule="evenodd" clip-rule="evenodd" d="M40.1497 37.0345L10.9369 24.6143C8.65484 23.644 7.57132 21.0319 8.5271 18.7838C9.48092 16.5404 12.1111 15.5018 14.3979 16.4741L43.6106 28.8943C45.8927 29.8646 46.9762 32.4767 46.0204 34.7247C45.0566 36.972 42.4318 38.0048 40.1497 37.0345Z" fill="#C5BCFF"/>
</svg>
