<svg width="215" height="319" viewBox="0 0 215 319" fill="none" xmlns="http://www.w3.org/2000/svg">
<path d="M7.93286 4.42054C7.93286 6.37195 6.35356 7.95388 4.4054 7.95388C2.45723 7.95388 0.87793 6.37195 0.87793 4.42054C0.87793 2.46913 2.45723 0.887207 4.4054 0.887207C6.35356 0.887207 7.93286 2.46913 7.93286 4.42054Z" fill="#6090A7" fill-opacity="0.25"/>
<path d="M59.6687 4.42054C59.6687 6.37195 58.0894 7.95388 56.1412 7.95388C54.1931 7.95388 52.6138 6.37195 52.6138 4.42054C52.6138 2.46913 54.1931 0.887207 56.1412 0.887207C58.0894 0.887207 59.6687 2.46913 59.6687 4.42054Z" fill="#6090A7" fill-opacity="0.25"/>
<path d="M111.405 4.42054C111.405 6.37195 109.826 7.95388 107.878 7.95388C105.93 7.95388 104.35 6.37195 104.35 4.42054C104.35 2.46913 105.93 0.887207 107.878 0.887207C109.826 0.887207 111.405 2.46913 111.405 4.42054Z" fill="#6090A7" fill-opacity="0.25"/>
<path d="M163.141 4.42054C163.141 6.37195 161.562 7.95388 159.614 7.95388C157.666 7.95388 156.086 6.37195 156.086 4.42054C156.086 2.46913 157.666 0.887207 159.614 0.887207C161.562 0.887207 163.141 2.46913 163.141 4.42054Z" fill="#6090A7" fill-opacity="0.25"/>
<path d="M214.878 4.42054C214.878 6.37195 213.299 7.95388 211.35 7.95388C209.402 7.95388 207.823 6.37195 207.823 4.42054C207.823 2.46913 209.402 0.887207 211.35 0.887207C213.299 0.887207 214.878 2.46913 214.878 4.42054Z" fill="#6090A7" fill-opacity="0.25"/>
<path d="M7.93286 56.2427C7.93286 58.1941 6.35356 59.776 4.4054 59.776C2.45723 59.776 0.87793 58.1941 0.87793 56.2427C0.87793 54.2913 2.45723 52.7094 4.4054 52.7094C6.35356 52.7094 7.93286 54.2913 7.93286 56.2427Z" fill="#6090A7" fill-opacity="0.25"/>
<path d="M59.6687 56.2427C59.6687 58.1941 58.0894 59.776 56.1412 59.776C54.1931 59.776 52.6138 58.1941 52.6138 56.2427C52.6138 54.2913 54.1931 52.7094 56.1412 52.7094C58.0894 52.7094 59.6687 54.2913 59.6687 56.2427Z" fill="#6090A7" fill-opacity="0.25"/>
<path d="M111.405 56.2427C111.405 58.1941 109.826 59.776 107.878 59.776C105.93 59.776 104.35 58.1941 104.35 56.2427C104.35 54.2913 105.93 52.7094 107.878 52.7094C109.826 52.7094 111.405 54.2913 111.405 56.2427Z" fill="#6090A7" fill-opacity="0.25"/>
<path d="M163.141 56.2427C163.141 58.1941 161.562 59.776 159.614 59.776C157.666 59.776 156.086 58.1941 156.086 56.2427C156.086 54.2913 157.666 52.7094 159.614 52.7094C161.562 52.7094 163.141 54.2913 163.141 56.2427Z" fill="#6090A7" fill-opacity="0.25"/>
<path d="M214.878 56.2427C214.878 58.1941 213.299 59.776 211.35 59.776C209.402 59.776 207.823 58.1941 207.823 56.2427C207.823 54.2913 209.402 52.7094 211.35 52.7094C213.299 52.7094 214.878 54.2913 214.878 56.2427Z" fill="#6090A7" fill-opacity="0.25"/>
<path d="M7.93286 108.065C7.93286 110.016 6.35356 111.598 4.4054 111.598C2.45723 111.598 0.87793 110.016 0.87793 108.065C0.87793 106.114 2.45723 104.532 4.4054 104.532C6.35356 104.532 7.93286 106.114 7.93286 108.065Z" fill="#6090A7" fill-opacity="0.25"/>
<path d="M59.6687 108.065C59.6687 110.016 58.0894 111.598 56.1412 111.598C54.1931 111.598 52.6138 110.016 52.6138 108.065C52.6138 106.114 54.1931 104.532 56.1412 104.532C58.0894 104.532 59.6687 106.114 59.6687 108.065Z" fill="#6090A7" fill-opacity="0.25"/>
<path d="M111.405 108.065C111.405 110.016 109.826 111.598 107.878 111.598C105.93 111.598 104.35 110.016 104.35 108.065C104.35 106.114 105.93 104.532 107.878 104.532C109.826 104.532 111.405 106.114 111.405 108.065Z" fill="#6090A7" fill-opacity="0.25"/>
<path d="M163.141 108.065C163.141 110.016 161.562 111.598 159.614 111.598C157.666 111.598 156.086 110.016 156.086 108.065C156.086 106.114 157.666 104.532 159.614 104.532C161.562 104.532 163.141 106.114 163.141 108.065Z" fill="#6090A7" fill-opacity="0.25"/>
<path d="M214.878 108.065C214.878 110.016 213.299 111.598 211.35 111.598C209.402 111.598 207.823 110.016 207.823 108.065C207.823 106.114 209.402 104.532 211.35 104.532C213.299 104.532 214.878 106.114 214.878 108.065Z" fill="#6090A7" fill-opacity="0.25"/>
<path d="M7.93286 159.887C7.93286 161.839 6.35356 163.421 4.4054 163.421C2.45723 163.421 0.87793 161.839 0.87793 159.887C0.87793 157.936 2.45723 156.354 4.4054 156.354C6.35356 156.354 7.93286 157.936 7.93286 159.887Z" fill="#6090A7" fill-opacity="0.25"/>
<path d="M59.6687 159.887C59.6687 161.839 58.0894 163.421 56.1412 163.421C54.1931 163.421 52.6138 161.839 52.6138 159.887C52.6138 157.936 54.1931 156.354 56.1412 156.354C58.0894 156.354 59.6687 157.936 59.6687 159.887Z" fill="#6090A7" fill-opacity="0.25"/>
<path d="M111.405 159.887C111.405 161.839 109.826 163.421 107.878 163.421C105.93 163.421 104.35 161.839 104.35 159.887C104.35 157.936 105.93 156.354 107.878 156.354C109.826 156.354 111.405 157.936 111.405 159.887Z" fill="#6090A7" fill-opacity="0.25"/>
<path d="M163.141 159.887C163.141 161.839 161.562 163.421 159.614 163.421C157.666 163.421 156.086 161.839 156.086 159.887C156.086 157.936 157.666 156.354 159.614 156.354C161.562 156.354 163.141 157.936 163.141 159.887Z" fill="#6090A7" fill-opacity="0.25"/>
<path d="M214.878 159.887C214.878 161.839 213.299 163.421 211.35 163.421C209.402 163.421 207.823 161.839 207.823 159.887C207.823 157.936 209.402 156.354 211.35 156.354C213.299 156.354 214.878 157.936 214.878 159.887Z" fill="#6090A7" fill-opacity="0.25"/>
<path d="M7.93286 211.709C7.93286 213.661 6.35356 215.243 4.4054 215.243C2.45723 215.243 0.87793 213.661 0.87793 211.709C0.87793 209.758 2.45723 208.176 4.4054 208.176C6.35356 208.176 7.93286 209.758 7.93286 211.709Z" fill="#6090A7" fill-opacity="0.25"/>
<path d="M59.6687 211.709C59.6687 213.661 58.0894 215.243 56.1412 215.243C54.1931 215.243 52.6138 213.661 52.6138 211.709C52.6138 209.758 54.1931 208.176 56.1412 208.176C58.0894 208.176 59.6687 209.758 59.6687 211.709Z" fill="#6090A7" fill-opacity="0.25"/>
<path d="M111.405 211.709C111.405 213.661 109.826 215.243 107.878 215.243C105.93 215.243 104.35 213.661 104.35 211.709C104.35 209.758 105.93 208.176 107.878 208.176C109.826 208.176 111.405 209.758 111.405 211.709Z" fill="#6090A7" fill-opacity="0.25"/>
<path d="M163.141 211.709C163.141 213.661 161.562 215.243 159.614 215.243C157.666 215.243 156.086 213.661 156.086 211.709C156.086 209.758 157.666 208.176 159.614 208.176C161.562 208.176 163.141 209.758 163.141 211.709Z" fill="#6090A7" fill-opacity="0.25"/>
<path d="M214.878 211.709C214.878 213.661 213.299 215.243 211.35 215.243C209.402 215.243 207.823 213.661 207.823 211.709C207.823 209.758 209.402 208.176 211.35 208.176C213.299 208.176 214.878 209.758 214.878 211.709Z" fill="#6090A7" fill-opacity="0.25"/>
<path d="M7.93286 263.532C7.93286 265.483 6.35356 267.065 4.4054 267.065C2.45723 267.065 0.87793 265.483 0.87793 263.532C0.87793 261.58 2.45723 259.998 4.4054 259.998C6.35356 259.998 7.93286 261.58 7.93286 263.532Z" fill="#6090A7" fill-opacity="0.25"/>
<path d="M59.6687 263.532C59.6687 265.483 58.0894 267.065 56.1412 267.065C54.1931 267.065 52.6138 265.483 52.6138 263.532C52.6138 261.58 54.1931 259.998 56.1412 259.998C58.0894 259.998 59.6687 261.58 59.6687 263.532Z" fill="#6090A7" fill-opacity="0.25"/>
<path d="M111.405 263.532C111.405 265.483 109.826 267.065 107.878 267.065C105.93 267.065 104.35 265.483 104.35 263.532C104.35 261.58 105.93 259.998 107.878 259.998C109.826 259.998 111.405 261.58 111.405 263.532Z" fill="#6090A7" fill-opacity="0.25"/>
<path d="M163.141 263.532C163.141 265.483 161.562 267.065 159.614 267.065C157.666 267.065 156.086 265.483 156.086 263.532C156.086 261.58 157.666 259.998 159.614 259.998C161.562 259.998 163.141 261.58 163.141 263.532Z" fill="#6090A7" fill-opacity="0.25"/>
<path d="M214.878 263.532C214.878 265.483 213.299 267.065 211.35 267.065C209.402 267.065 207.823 265.483 207.823 263.532C207.823 261.58 209.402 259.998 211.35 259.998C213.299 259.998 214.878 261.58 214.878 263.532Z" fill="#6090A7" fill-opacity="0.25"/>
<path d="M7.93286 315.354C7.93286 317.305 6.35356 318.887 4.4054 318.887C2.45723 318.887 0.87793 317.305 0.87793 315.354C0.87793 313.402 2.45723 311.821 4.4054 311.821C6.35356 311.821 7.93286 313.402 7.93286 315.354Z" fill="#6090A7" fill-opacity="0.25"/>
<path d="M59.6687 315.354C59.6687 317.305 58.0894 318.887 56.1412 318.887C54.1931 318.887 52.6138 317.305 52.6138 315.354C52.6138 313.402 54.1931 311.821 56.1412 311.821C58.0894 311.821 59.6687 313.402 59.6687 315.354Z" fill="#6090A7" fill-opacity="0.25"/>
<path d="M111.405 315.354C111.405 317.305 109.826 318.887 107.878 318.887C105.93 318.887 104.35 317.305 104.35 315.354C104.35 313.402 105.93 311.821 107.878 311.821C109.826 311.821 111.405 313.402 111.405 315.354Z" fill="#6090A7" fill-opacity="0.25"/>
<path d="M163.141 315.354C163.141 317.305 161.562 318.887 159.614 318.887C157.666 318.887 156.086 317.305 156.086 315.354C156.086 313.402 157.666 311.821 159.614 311.821C161.562 311.821 163.141 313.402 163.141 315.354Z" fill="#6090A7" fill-opacity="0.25"/>
<path d="M214.878 315.354C214.878 317.305 213.299 318.887 211.35 318.887C209.402 318.887 207.823 317.305 207.823 315.354C207.823 313.402 209.402 311.821 211.35 311.821C213.299 311.821 214.878 313.402 214.878 315.354Z" fill="#6090A7" fill-opacity="0.25"/>
</svg>
