<?xml version="1.0" encoding="UTF-8"?>
<svg width="68px" height="62px" viewBox="0 0 68 62" version="1.1" xmlns="http://www.w3.org/2000/svg" xmlns:xlink="http://www.w3.org/1999/xlink">
    <title>logo-mobile</title>
    <g id="Page-1" stroke="none" stroke-width="1" fill="none" fill-rule="evenodd">
        <g id="logo-mobile">
            <path d="M67.5585572,23.0275 C67.5717,16.5168 65.3015,12.2508 61.2212,9.14202 C50.4551,0.93747 33.5902,-1.23685 20.0022,2.89974 C20.8619,2.99477 16.9479,17.0676 17.7812,16.6268 C19.0545,15.9528 23.8863,15.467 25.2141,14.9487 C26.6326,9.7351 63.3858,4.30675 67.416,26.1108 C67.5391,25.4992 67.5576,23.6557 67.5585572,23.0275 Z" id="Path" fill="#4E46B5"></path>
            <path d="M25.1571,15.3976 L25.4704,20.078 C25.7062,23.904 24.2332,28.2658 21.1939,29.6455 L7.39468,36.0779 C5.17283,37.0133 2.7706,36.4255 2.09041,33.9687 C0.0542311,22.9809 -1.25072,13.4292 8.76738,7.52741 C23.7422,-1.29574 43.7238,-1.32918 57.956,6.92377 C48.1534,0.310147 24.5605,5.78601 25.1571,15.3976 Z" id="Path" fill="#7168ED"></path>
            <path d="M0.665038768,39.3292 C0.651897,45.8398 2.92214,50.1058 7.00242,53.2146 C17.7685,61.4191 34.6334,63.5935 48.2214,59.4569 C47.3617,59.3618 51.2757,45.2881 50.4424,45.729 C49.1691,46.403 44.3373,46.8887 43.0095,47.4079 C41.5911,52.6215 4.83777,58.0499 0.807649,36.2458 C0.683577,36.8574 0.665976,38.7009 0.665038768,39.3292 Z" id="Path" fill="#0DA18B"></path>
            <path d="M43.0676,46.9591 L42.7544,42.2787 C42.5186,38.4527 43.9916,34.0909 47.0309,32.7112 L60.8301,26.2788 C63.0519,25.3443 65.4542,25.9312 66.1344,28.388 C68.1705,39.3758 69.4755,48.9275 59.4574,54.8293 C44.4826,63.6524 24.5009,63.6859 10.2688,55.4329 C20.0704,62.0466 43.6642,56.5707 43.0676,46.9591 Z" id="Path" fill="#00CAAD"></path>
        </g>
    </g>
</svg>