<svg width="330" height="62" viewBox="0 0 330 62" fill="none" xmlns="http://www.w3.org/2000/svg">
<g clip-path="url(#clip0)">
<path fill-rule="evenodd" clip-rule="evenodd" d="M104.25 20.3084C103.747 18.6937 102.671 17.3307 101.056 16.2906C99.4415 15.2144 97.5048 14.6759 95.3164 14.6759C92.805 14.6759 90.7609 15.3931 89.1463 16.7922C87.5676 18.1913 86.7783 20.0207 86.7783 22.2812C86.7783 24.8278 87.9979 26.7654 90.4019 28.0572C91.442 28.5948 93.4509 29.3128 96.4647 30.2095C97.4335 30.5324 97.577 30.5324 98.4736 30.9627C98.94 31.1783 99.299 31.3939 99.5137 31.5725C99.944 31.9667 100.41 32.6126 100.41 33.3306C100.41 35.0527 98.4375 36.2362 95.8901 36.2362C93.2714 36.2362 91.2625 34.9093 90.8674 33.3306L86.0603 34.7658C86.5979 36.5239 87.7463 37.9582 89.5035 39.1426C91.2616 40.2909 93.414 40.8647 95.8892 40.8647C98.6513 40.8647 100.876 40.1475 102.598 38.7124C104.356 37.242 105.217 35.3043 105.217 32.9012C105.217 30.9284 104.391 29.2424 103.531 28.3458C103.1 27.8794 102.491 27.413 101.737 27.018C100.195 26.1935 99.5489 26.0491 98.0064 25.6189C95.9253 25.0091 94.5623 24.5788 93.8812 24.291C92.3387 23.6452 91.5854 22.8558 91.5854 21.9231C91.5854 20.4518 93.2714 19.2683 95.3885 19.2683C97.3974 19.2683 99.0482 20.3806 99.4424 21.7075L104.25 20.3084ZM126.921 32.6487C127.028 31.9315 127.065 31.393 127.065 30.9988C127.065 28.2006 126.132 25.8688 124.23 23.9681C122.365 22.0665 120.033 21.1338 117.271 21.1338C114.509 21.1338 112.177 22.0665 110.275 23.9681C108.41 25.8336 107.477 28.1654 107.477 30.9988C107.477 33.8331 108.446 36.1649 110.347 38.0656C112.284 39.9311 114.687 40.8638 117.557 40.8638C121.324 40.8638 124.552 38.9983 126.274 36.0215L121.934 34.7658C120.857 36.0936 119.386 36.7386 117.557 36.7386C114.938 36.7386 112.786 35.0887 112.104 32.6487H126.921ZM112.141 29.1694C112.823 26.8376 114.868 25.259 117.2 25.259C119.639 25.259 121.72 26.8376 122.437 29.1694H112.141ZM138.221 21.1338C135.639 21.1338 133.485 22.0665 131.728 23.9681C130.006 25.8336 129.146 28.1654 129.146 30.9988C129.146 33.8331 130.007 36.1649 131.728 38.0656C133.486 39.9311 135.639 40.8638 138.221 40.8638C140.338 40.8638 142.239 40.1827 143.889 38.8549V39.8237C143.889 41.1507 143.423 42.2268 142.454 43.1235C141.485 44.0201 140.338 44.4865 138.938 44.4865C136.966 44.4865 135.136 43.4464 134.454 42.0473L129.97 43.3391C130.616 44.9538 131.8 46.2807 133.486 47.3208C135.171 48.3969 137.037 48.9355 139.082 48.9355C141.665 48.9355 143.853 48.074 145.647 46.3168C147.441 44.5587 148.338 42.4063 148.338 39.8237V21.6715H143.89V23.1418C142.239 21.8149 140.338 21.1338 138.221 21.1338ZM142.347 27.1605C143.316 28.2006 143.819 29.4571 143.819 30.9988C143.819 32.5413 143.316 33.797 142.347 34.8371C141.379 35.8772 140.195 36.3796 138.796 36.3796C137.397 36.3796 136.177 35.8772 135.208 34.8371C134.24 33.797 133.773 32.5413 133.773 30.9988C133.773 29.4563 134.24 28.2006 135.208 27.1605C136.177 26.1204 137.397 25.618 138.796 25.618C140.195 25.618 141.379 26.1204 142.347 27.1605ZM152.14 33.5814C152.14 35.6625 152.822 37.3836 154.221 38.7827C155.62 40.1818 157.378 40.8629 159.495 40.8629C161.863 40.8629 163.728 39.9302 165.091 38.0647V40.3253H169.575V21.6715H165.091V32.2897C165.091 34.7289 163.262 36.5943 160.858 36.5943C158.419 36.5943 156.624 34.7289 156.624 32.2897V21.6715H152.14V33.5814ZM173.378 40.3261H177.862V29.6718C177.862 27.2327 179.691 25.4024 182.13 25.4024C184.533 25.4024 186.328 27.2318 186.328 29.6718V40.3261H190.812V28.4162C190.812 26.3351 190.095 24.6131 188.695 23.214C187.296 21.8149 185.574 21.1338 183.458 21.1338C181.09 21.1338 179.225 22.0665 177.862 23.932V21.6723H173.378V40.3261ZM203.009 21.1338C200.427 21.1338 198.274 22.0665 196.516 23.9681C194.794 25.8336 193.934 28.1654 193.934 30.9988C193.934 33.8331 194.795 36.1649 196.516 38.0656C198.275 39.9311 200.427 40.8638 203.009 40.8638C205.126 40.8638 207.027 40.1827 208.677 38.8549V40.3253H213.125V13.4211H208.677V23.1427C207.027 21.8149 205.126 21.1338 203.009 21.1338ZM207.135 27.1605C208.103 28.2006 208.606 29.4571 208.606 30.9988C208.606 32.5413 208.103 33.797 207.135 34.8371C206.166 35.8772 204.982 36.3796 203.583 36.3796C202.184 36.3796 200.964 35.8772 199.996 34.8371C199.027 33.797 198.56 32.5413 198.56 30.9988C198.56 29.4563 199.027 28.2006 199.996 27.1605C200.964 26.1204 202.184 25.618 203.583 25.618C204.982 25.618 206.167 26.1204 207.135 27.1605ZM225.323 21.1338C222.74 21.1338 220.588 22.0665 218.83 23.9681C217.108 25.8336 216.247 28.1654 216.247 30.9988C216.247 33.8331 217.108 36.1649 218.83 38.0656C220.588 39.9311 222.74 40.8638 225.323 40.8638C227.44 40.8638 229.341 40.1827 230.991 38.8549V40.3253H235.439V21.6715H230.991V23.1418C229.341 21.8149 227.44 21.1338 225.323 21.1338ZM229.449 27.1605C230.418 28.2006 230.919 29.4571 230.919 30.9988C230.919 32.5413 230.418 33.797 229.449 34.8371C228.48 35.8772 227.297 36.3796 225.898 36.3796C224.498 36.3796 223.279 35.8772 222.31 34.8371C221.341 33.797 220.875 32.5413 220.875 30.9988C220.875 29.4563 221.341 28.2006 222.31 27.1605C223.278 26.1204 224.498 25.618 225.898 25.618C227.297 25.618 228.48 26.1204 229.449 27.1605ZM239.421 15.2145V40.3261H256.892V35.8781H244.228V15.2153H239.421V15.2145ZM264.139 40.3261V21.6723H259.655V40.3261H264.139ZM261.879 20.0216C263.565 20.0216 264.749 18.7659 264.749 17.1512C264.749 15.5365 263.493 14.3169 261.879 14.3169C260.264 14.3169 259.045 15.5365 259.045 17.1512C259.045 18.7659 260.264 20.0216 261.879 20.0216ZM267.941 40.3261H272.425V29.6718C272.425 27.2327 274.255 25.4024 276.694 25.4024C279.098 25.4024 280.891 27.2318 280.891 29.6718V40.3261H285.375V28.4162C285.375 26.3351 284.658 24.6131 283.259 23.214C281.86 21.8149 280.138 21.1338 278.022 21.1338C275.654 21.1338 273.788 22.0665 272.425 23.932V21.6723H267.941V40.3261ZM289.178 40.3261H293.663V29.6718C293.663 27.2327 295.528 25.4024 298.075 25.4024C300.622 25.4024 302.487 27.2318 302.487 29.6718V40.3261H306.936V28.4162C306.936 26.3351 306.218 24.6131 304.783 23.214C303.384 21.8149 301.591 21.1338 299.438 21.1338C296.963 21.1338 295.062 22.0665 293.663 23.932V13.4211H289.178V40.3261ZM319.133 21.1338C316.551 21.1338 314.397 22.0665 312.64 23.9681C310.918 25.8336 310.058 28.1654 310.058 30.9988C310.058 33.8331 310.919 36.1649 312.64 38.0656C314.398 39.9311 316.551 40.8638 319.133 40.8638C321.25 40.8638 323.151 40.1827 324.801 38.8549V40.3253H329.249V21.6715H324.801V23.1418C323.151 21.8149 321.25 21.1338 319.133 21.1338ZM323.258 27.1605C324.227 28.2006 324.73 29.4571 324.73 30.9988C324.73 32.5413 324.227 33.797 323.258 34.8371C322.29 35.8772 321.106 36.3796 319.707 36.3796C318.308 36.3796 317.088 35.8772 316.119 34.8371C315.151 33.797 314.684 32.5413 314.684 30.9988C314.684 29.4563 315.151 28.2006 316.119 27.1605C317.088 26.1204 318.308 25.618 319.707 25.618C321.106 25.618 322.29 26.1204 323.258 27.1605Z" fill="#fff"/>
<path fill-rule="evenodd" clip-rule="evenodd" d="M67.5585 23.0275C67.5717 16.5168 65.3015 12.2508 61.2212 9.14202C50.4551 0.93747 33.5902 -1.23685 20.0022 2.89974C20.8619 2.99477 16.9479 17.0676 17.7812 16.6268C19.0545 15.9528 23.8863 15.467 25.2141 14.9487C26.6326 9.7351 63.3858 4.30675 67.416 26.1108C67.5391 25.4992 67.5576 23.6557 67.5585 23.0275Z" fill="#fff"/>
<path fill-rule="evenodd" clip-rule="evenodd" d="M25.1571 15.3976L25.4704 20.078C25.7062 23.904 24.2332 28.2658 21.1939 29.6455L7.39468 36.0779C5.17283 37.0133 2.7706 36.4255 2.09041 33.9687C0.0542311 22.9809 -1.25072 13.4292 8.76738 7.52741C23.7422 -1.29574 43.7238 -1.32918 57.956 6.92377C48.1534 0.310147 24.5605 5.78601 25.1571 15.3976Z" fill="#fff"/>
<path fill-rule="evenodd" clip-rule="evenodd" d="M0.665096 39.3292C0.651897 45.8398 2.92214 50.1058 7.00242 53.2146C17.7685 61.4191 34.6334 63.5935 48.2214 59.4569C47.3617 59.3618 51.2757 45.2881 50.4424 45.729C49.1691 46.403 44.3373 46.8887 43.0095 47.4079C41.5911 52.6215 4.83777 58.0499 0.807649 36.2458C0.683577 36.8574 0.665976 38.7009 0.665096 39.3292Z" fill="#fff"/>
<path fill-rule="evenodd" clip-rule="evenodd" d="M43.0676 46.9591L42.7544 42.2787C42.5186 38.4527 43.9916 34.0909 47.0309 32.7112L60.8301 26.2788C63.0519 25.3443 65.4542 25.9312 66.1344 28.388C68.1705 39.3758 69.4755 48.9275 59.4574 54.8293C44.4826 63.6524 24.5009 63.6859 10.2688 55.4329C20.0704 62.0466 43.6642 56.5707 43.0676 46.9591Z" fill="#fff"/>
</g>
<defs>
<clipPath id="clip0">
<rect width="329.097" height="61.5957" fill="white" transform="translate(0.3125)"/>
</clipPath>
</defs>
</svg>
